<?xml version="1.0" encoding="UTF-8" standalone="no"?>
<svg
   version="1.1"
   width="1080pt"
   height="1350pt"
   id="svg23"
   viewBox="0 0 1080 1350"
   sodipodi:docname="Vamma logo.cdr"
   xmlns:inkscape="http://www.inkscape.org/namespaces/inkscape"
   xmlns:sodipodi="http://sodipodi.sourceforge.net/DTD/sodipodi-0.dtd"
   xmlns="http://www.w3.org/2000/svg"
   xmlns:svg="http://www.w3.org/2000/svg">
  <defs
     id="defs23" />
  <sodipodi:namedview
     id="namedview23"
     pagecolor="#ffffff"
     bordercolor="#000000"
     borderopacity="0.25"
     inkscape:showpageshadow="2"
     inkscape:pageopacity="0.0"
     inkscape:pagecheckerboard="0"
     inkscape:deskcolor="#d1d1d1"
     inkscape:document-units="pt" />
  <g
     id="Layer1000">
    <path
       d="m 562.7531,445.3903 -15.813,-53.5859 v 0.006 h -14.205 c -2.427,5.6789 -4.0054,9.1137 -5.5412,12.4651 -1.671,3.6414 -3.2944,7.1815 -5.9162,13.392 -1.0051,2.3275 -2.2203,4.9765 -3.4891,7.7394 -1.6107,3.507 -3.3055,7.2003 -4.7699,10.6716 -0.5791,1.3649 -1.2628,2.9219 -2.001,4.5989 -2.103,4.7758 -4.638,10.5296 -6.366,15.6685 -1.9772,5.8686 -3.1439,12.7049 -1.728,18.2699 1.7824,7.2037 8.1178,10.7915 14.7688,10.8697 7.173,0.108 14.7934,-3.7834 17.7902,-11.4871 -3.2791,1.4219 -6.9213,2.0307 -10.1486,1.5868 -4.5003,-0.585 -8.259,-3.1983 -9.8135,-8.532 -1.836,-6.2614 -0.4712,-14.7934 1.2815,-21.27 1.4788,-5.4723 3.4348,-10.8417 5.0939,-15.3964 0.3061,-0.8368 0.6029,-1.6498 0.8818,-2.427 2.0699,-6.0387 5.7453,-14.5375 8.5856,-21.1051 0.8615,-1.9882 1.6447,-3.8004 2.2833,-5.3158 l 14.7118,51.2464 c 3.1745,-4.7222 8.6137,-7.5719 14.3946,-7.395 z"
       style="fill:#8296ba;fill-rule:evenodd"
       id="path1" />
    <path
       d="m 517.377,580.2398 15.7586,53.3996 v -0.006 h 14.1574 c 2.4176,-5.6576 3.9866,-9.0805 5.5199,-12.42 1.6651,-3.6294 3.2817,-7.1577 5.8949,-13.3469 1.0018,-2.3216 2.211,-4.9586 3.4773,-7.7131 1.6047,-3.4942 3.2935,-7.1756 4.752,-10.6316 0.5791,-1.3649 1.2594,-2.9134 1.9975,-4.5836 2.0946,-4.7613 4.6202,-10.4947 6.3423,-15.6183 1.9712,-5.8473 3.132,-12.6598 1.722,-18.2044 -1.7764,-7.179 -8.0906,-10.7549 -14.7177,-10.8323 -7.1493,-0.108 -14.7391,3.7706 -17.7307,11.448 3.2706,-1.4193 6.9001,-2.0257 10.1162,-1.5818 4.485,0.5851 8.2293,3.1831 9.7804,8.5023 1.8301,6.2368 0.4677,14.7424 -1.2781,21.1977 -1.4729,5.4511 -3.4229,10.8035 -5.076,15.342 -0.3062,0.8342 -0.6004,1.6413 -0.8819,2.4185 -2.0613,6.0208 -5.724,14.4865 -8.5532,21.0328 -0.8581,1.9797 -1.6413,3.786 -2.2774,5.2954 l -14.6574,-51.0695 c -3.1651,4.7069 -8.5864,7.5481 -14.3461,7.3712 z"
       style="fill:#28365b;fill-rule:evenodd"
       id="path2" />
    <path
       d="m 492.9783,459.3342 -54.3155,-13.0986 0.009,0.003 -7.1042,12.3026 c 3.7018,4.9408 5.8924,8.0218 8.0252,11.0279 2.319,3.2707 4.5717,6.4469 8.64,11.8205 1.5154,2.0367 3.1983,4.4127 4.9586,6.8942 2.2323,3.1464 4.5811,6.4612 6.855,9.4648 0.8946,1.1821 1.899,2.5555 2.9824,4.0318 3.0843,4.2094 6.798,9.282 10.3858,13.3503 4.0955,4.644 9.4317,9.072 14.9584,10.6291 7.1306,2.0605 13.4065,-1.6353 16.797,-7.3568 3.6839,-6.156 4.1219,-14.6999 -1.0502,-21.1493 -0.4108,3.5521 -1.7042,7.0107 -3.7018,9.5814 -2.757,3.6065 -6.8975,5.5565 -12.2975,4.2333 -6.3389,-1.5393 -13.0434,-6.9903 -17.7775,-11.7423 -3.9994,-4.0164 -7.6714,-8.3968 -10.7855,-12.1104 -0.5724,-0.6846 -1.1277,-1.3471 -1.6617,-1.9806 -4.1967,-4.8115 -9.7175,-12.2431 -13.9864,-17.985 -1.2892,-1.7399 -2.4687,-3.3267 -3.4586,-4.638 l 51.7346,12.8851 c -2.5019,-5.1117 -2.2493,-11.2464 0.7925,-16.1634 z"
       style="fill:#95a6c4;fill-rule:evenodd"
       id="path3" />
    <path
       d="m 587.0906,566.4736 54.1258,13.0535 -0.006,-0.003 7.0769,-12.2609 c -3.6898,-4.923 -5.8677,-7.9946 -7.9945,-10.9922 -2.3105,-3.2545 -4.5573,-6.4222 -8.6137,-11.778 -1.5086,-2.0273 -3.1855,-4.3948 -4.9373,-6.8669 -2.2264,-3.138 -4.5692,-6.4409 -6.8347,-9.4317 -0.8903,-1.1821 -1.8929,-2.5503 -2.9729,-4.0198 -3.0717,-4.1942 -6.7734,-9.2489 -10.3493,-13.3019 -4.0802,-4.6321 -9.3994,-9.0422 -14.9074,-10.5959 -7.1042,-2.052 -13.3589,1.6319 -16.7366,7.3313 -3.6695,6.1355 -4.1074,14.6497 1.0468,21.0787 0.4073,-3.5402 1.6948,-6.9877 3.6865,-9.5491 2.751,-3.5946 6.8763,-5.5386 12.255,-4.218 6.3184,1.5324 12.9991,6.9631 17.7179,11.7023 3.9841,3.9994 7.6442,8.367 10.749,12.0696 0.5706,0.6812 1.1225,1.3377 1.6566,1.9704 4.1788,4.7945 9.6834,12.2015 13.9345,17.9221 1.2875,1.7339 2.4602,3.3156 3.4501,4.6201 l -51.5577,-12.8401 c 2.4959,5.0973 2.2442,11.2116 -0.7891,16.1099 z"
       style="fill:#485d80;fill-rule:evenodd"
       id="path4" />
    <path
       d="m 470.2005,526.8163 -38.499,40.4881 0.006,-0.003 7.1008,12.3001 c 6.1287,-0.7347 9.8943,-1.0885 13.5663,-1.4337 3.9866,-0.3717 7.8661,-0.7382 14.5528,-1.5724 2.5231,-0.2934 5.4212,-0.5638 8.4478,-0.8487 3.8429,-0.3572 7.8899,-0.7347 11.6283,-1.2033 1.4728,-0.1828 3.1617,-0.3657 4.9833,-0.5664 5.1865,-0.5672 11.4352,-1.2483 16.7544,-2.319 6.0693,-1.2246 12.5731,-3.6329 16.6831,-7.6416 5.3489,-5.1449 5.286,-12.426 2.0281,-18.2214 -3.4917,-6.2674 -10.6707,-10.9199 -18.843,-9.6664 2.8743,2.1302 5.2197,4.9799 6.4503,7.9954 1.7424,4.1907 1.3614,8.7505 -2.484,12.7678 -4.5003,4.7188 -12.5731,7.7998 -19.0591,9.5252 -5.4782,1.4551 -11.1061,2.4449 -15.8794,3.2851 -0.8818,0.1531 -1.7305,0.3027 -2.5469,0.4499 -6.264,1.2271 -15.4593,2.2918 -22.5686,3.1167 -2.1515,0.2491 -4.1134,0.4745 -5.7453,0.6777 l 37.0262,-38.3604 c -5.6789,-0.3903 -10.8663,-3.6754 -13.6021,-8.7693 z"
       style="fill:#a8b6cd;fill-rule:evenodd"
       id="path5" />
    <path
       d="m 609.9296,499.0595 38.499,-40.4881 -0.006,0.003 -7.1041,-12.3001 c -6.1254,0.7355 -9.891,1.0893 -13.563,1.4346 -3.9866,0.3716 -7.8653,0.7381 -14.5553,1.5715 -2.5206,0.2942 -5.4187,0.5638 -8.4453,0.8495 -3.8429,0.3564 -7.8899,0.7348 -11.6283,1.2025 -1.4728,0.1828 -3.1617,0.3665 -4.9824,0.5672 -5.1874,0.5672 -11.4361,1.2484 -16.7553,2.3216 -6.0693,1.2212 -12.5731,3.6303 -16.683,7.6382 -5.349,5.1449 -5.2861,12.426 -2.0308,18.2223 3.4951,6.2665 10.6742,10.9199 18.8456,9.6655 -2.8735,-2.1294 -5.2231,-4.9799 -6.4502,-7.9945 -1.7425,-4.1908 -1.3615,-8.7514 2.484,-12.7678 4.5002,-4.7197 12.573,-7.8007 19.059,-9.5253 5.4782,-1.455 11.1061,-2.4449 15.8794,-3.2851 0.8818,-0.153 1.7314,-0.3027 2.5469,-0.4498 6.264,-1.2271 15.4593,-2.2918 22.5695,-3.1167 2.1506,-0.2492 4.1125,-0.4745 5.7444,-0.6786 l -37.0262,38.3612 c 5.679,0.3904 10.8664,3.6746 13.6021,8.7693 z"
       style="fill:#687c9e;fill-rule:evenodd"
       id="path6" />
    <path
       d="m 786.4628,904.3129 h 9.771 c -4.365,5.406 -9.1204,12.5042 -14.9159,21.6238 v 23.9667 h -7.8814 v -21.8186 l -15.2399,-23.7719 h 9.3118 l 12.9634,20.1901 c 5.8592,-8.8594 6.8371,-13.8725 5.991,-20.1901 z"
       style="fill:#28365b;fill-rule:evenodd"
       id="path7" />
    <path
       d="m 718.6635,928.2158 c 4.6236,4.4935 12.6989,13.3495 19.8005,21.6867 h -9.5763 l -12.4378,-22.4036 v -0.7177 c 13.2211,0 13.2211,-20.9699 0,-20.9699 h -5.0794 v 44.0912 h -7.884 v -45.5913 h 16.4134 c 19.4758,0 19.4758,23.9046 0,23.9046 z"
       style="fill:#28365b;fill-rule:evenodd"
       id="path8" />
    <path
       d="m 665.1771,930.886 -11.397,-3.3871 v -0.7169 l 11.397,-3.3871 z"
       style="fill:#28365b;fill-rule:evenodd"
       id="path9" />
    <path
       d="m 671.8859,942.0228 h 0.0654 v 7.8814 h -28.4609 v -45.5913 h 28.0715 v 7.8815 c -7.1017,-3.9093 -12.4413,-6.3848 -20.1935,-6.3848 v 42.5971 c 7.7522,0 13.4158,-2.4117 20.5175,-6.3839 z"
       style="fill:#28365b;fill-rule:evenodd"
       id="path10" />
    <path
       d="m 618.9931,942.0228 h 0.0655 v 7.8814 h -28.461 v -45.5913 h 7.878 v 44.0938 c 7.7522,0 13.4167,-2.4117 20.5175,-6.3839 z"
       style="fill:#28365b;fill-rule:evenodd"
       id="path11" />
    <path
       d="m 565.7729,942.0228 h 0.0663 v 7.8814 h -28.461 v -45.5913 h 7.8781 v 44.0938 c 7.7522,0 13.4158,-2.4117 20.5166,-6.3839 z"
       style="fill:#28365b;fill-rule:evenodd"
       id="path12" />
    <path
       d="m 493.7496,930.886 -11.3969,-3.3871 v -0.7169 l 11.3969,-3.3871 z"
       style="fill:#28365b;fill-rule:evenodd"
       id="path13" />
    <path
       d="m 500.4575,942.0228 h 0.0664 v 7.8814 h -28.461 v -45.5913 h 28.0681 v 7.8815 c -7.0982,-3.9093 -12.4379,-6.3848 -20.1901,-6.3848 v 42.5971 c 7.7522,0 13.4159,-2.4117 20.5166,-6.3839 z"
       style="fill:#28365b;fill-rule:evenodd"
       id="path14" />
    <path
       d="m 437.3762,904.3129 h 9.2489 l -18.7589,46.3082 h -1.9533 l -9.6384,-22.6655 -10.095,22.6655 h -2.0197 l -19.7334,-46.3082 h 8.595 l 15.6991,37.0585 6.7079,-15.3054 -9.2489,-21.7531 h 8.5975 l 15.4355,36.4079 c 2.7357,-7.2964 8.5975,-26.2474 7.1637,-36.4079 z"
       style="fill:#28365b;fill-rule:evenodd"
       id="path15" />
    <path
       d="m 353.5716,930.886 -11.397,-3.3871 v -0.7169 l 11.397,-3.3871 z"
       style="fill:#28365b;fill-rule:evenodd"
       id="path16" />
    <path
       d="m 360.2803,942.0228 h 0.0655 v 7.8814 h -28.4609 v -45.5913 h 28.0714 v 7.8815 c -7.1016,-3.9093 -12.4412,-6.3848 -20.1934,-6.3848 v 42.5971 c 7.7522,0 13.4158,-2.4117 20.5174,-6.3839 z"
       style="fill:#28365b;fill-rule:evenodd"
       id="path17" />
    <path
       d="m 288.4552,904.3129 h 7.8152 v 39.3384 c 0,7.8814 -2.0818,11.9191 -12.1139,14.7841 l -0.3903,-1.2391 c 4.2996,-3.3207 4.689,-5.5343 4.689,-10.2234 z"
       style="fill:#28365b;fill-rule:evenodd"
       id="path18" />
    <path
       d="m 868.5003,717.66 57.945,135.5221 H 901.2838 L 855.3481,744.9177 c -8.1961,19.8209 -30.1175,79.2932 -25.7312,108.2644 H 802.5506 L 862.7822,717.66 Z"
       style="fill:#28365b;fill-rule:evenodd"
       id="path19" />
    <path
       d="M 744.8888,719.7562 764.14,853.1813 H 740.8868 L 725.6375,748.5386 692.854,826.1158 h -9.7234 l -35.4512,-74.7181 c -4.0045,35.0702 -3.0504,62.5201 7.4316,101.7836 h -27.4473 c 6.2912,-28.9704 12.7712,-76.4334 15.6302,-101.9758 l 3.621,-31.4493 h 11.2465 l 39.6487,83.6762 35.2616,-83.6762 z"
       style="fill:#28365b;fill-rule:evenodd"
       id="path20" />
    <path
       d="m 527.33,717.66 57.945,135.5221 H 560.1144 L 514.1778,744.9177 c -8.1961,19.8209 -30.1167,79.2932 -25.7312,108.2644 H 461.3811 L 521.6119,717.66 Z"
       style="fill:#28365b;fill-rule:evenodd"
       id="path21" />
    <path
       d="m 361.8315,717.66 57.9449,135.5221 H 394.615 L 348.6793,744.9177 c -8.1961,19.8209 -30.1176,79.2932 -25.7312,108.2644 H 295.8817 L 356.1134,717.66 Z"
       style="fill:#28365b;fill-rule:evenodd"
       id="path22" />
    <path
       d="m 250.3823,719.6346 h 27.0663 l -60.2308,135.5213 h -5.9103 L 153.5547,719.6346 h 25.1581 l 45.9357,108.2636 c 8.1986,-19.6322 30.1167,-79.101 25.7338,-108.2636 z"
       style="fill:#28365b;fill-rule:evenodd"
       id="path23" />
  </g>
</svg>
