<svg width="16" height="19" viewBox="0 0 16 19" fill="none" xmlns="http://www.w3.org/2000/svg">
<mask id="path-1-inside-1_1255_2871" fill="white">
<path d="M7.26562 5.85547C7.26562 5.30319 7.71638 4.84699 8.26101 4.93861C8.70624 5.01351 9.14264 5.1386 9.56173 5.31219C10.2897 5.61372 10.9511 6.05568 11.5083 6.61283C12.0654 7.16998 12.5074 7.83141 12.8089 8.55937C12.9825 8.97845 13.1076 9.41486 13.1825 9.86009C13.2741 10.4047 12.8179 10.8555 12.2656 10.8555L8.26563 10.8555C7.71334 10.8555 7.26563 10.4078 7.26563 9.85547L7.26562 5.85547Z"/>
</mask>
<path d="M7.26562 5.85547C7.26562 5.30319 7.71638 4.84699 8.26101 4.93861C8.70624 5.01351 9.14264 5.1386 9.56173 5.31219C10.2897 5.61372 10.9511 6.05568 11.5083 6.61283C12.0654 7.16998 12.5074 7.83141 12.8089 8.55937C12.9825 8.97845 13.1076 9.41486 13.1825 9.86009C13.2741 10.4047 12.8179 10.8555 12.2656 10.8555L8.26563 10.8555C7.71334 10.8555 7.26563 10.4078 7.26563 9.85547L7.26562 5.85547Z" fill="#3A4E83" stroke="#3A4E83" stroke-width="2" stroke-linejoin="round" mask="url(#path-1-inside-1_1255_2871)"/>
<path d="M7.75 3.43421C3.88401 3.43421 0.75 6.63891 0.75 10.5921C0.75 14.5453 3.88401 17.75 7.75 17.75C11.616 17.75 14.75 14.5453 14.75 10.5921C14.75 6.63891 11.616 3.43421 7.75 3.43421ZM7.75 3.43421V0.75M9.06934 0.75L6.44434 0.75" stroke="#3A4E83" stroke-width="1.5" stroke-linecap="round"/>
</svg>
