<svg width="16" height="19" viewBox="0 0 16 19" fill="none" xmlns="http://www.w3.org/2000/svg">
<mask id="path-1-inside-1_1255_2865" fill="white">
<path d="M7.26562 5.61328C7.26562 5.061 7.71638 4.6048 8.26101 4.69642C8.70624 4.77132 9.14264 4.89641 9.56173 5.07001C10.2897 5.37153 10.9511 5.81349 11.5083 6.37064C12.0654 6.92779 12.5074 7.58923 12.8089 8.31718C13.1104 9.04513 13.2656 9.82535 13.2656 10.6133C13.2656 11.4012 13.1104 12.1814 12.8089 12.9094C12.5074 13.6373 12.0654 14.2988 11.5083 14.8559C10.9511 15.4131 10.2897 15.855 9.56173 16.1566C9.14264 16.3301 8.70624 16.4552 8.26101 16.5301C7.71638 16.6218 7.26562 16.1656 7.26562 15.6133L7.26563 10.6133L7.26562 5.61328Z"/>
</mask>
<path d="M7.26562 5.61328C7.26562 5.061 7.71638 4.6048 8.26101 4.69642C8.70624 4.77132 9.14264 4.89641 9.56173 5.07001C10.2897 5.37153 10.9511 5.81349 11.5083 6.37064C12.0654 6.92779 12.5074 7.58923 12.8089 8.31718C13.1104 9.04513 13.2656 9.82535 13.2656 10.6133C13.2656 11.4012 13.1104 12.1814 12.8089 12.9094C12.5074 13.6373 12.0654 14.2988 11.5083 14.8559C10.9511 15.4131 10.2897 15.855 9.56173 16.1566C9.14264 16.3301 8.70624 16.4552 8.26101 16.5301C7.71638 16.6218 7.26562 16.1656 7.26562 15.6133L7.26563 10.6133L7.26562 5.61328Z" fill="#3A4E83" stroke="#3A4E83" stroke-width="2" stroke-linejoin="round" mask="url(#path-1-inside-1_1255_2865)"/>
<path d="M7.75 3.43421C3.88401 3.43421 0.75 6.63891 0.75 10.5921C0.75 14.5453 3.88401 17.75 7.75 17.75C11.616 17.75 14.75 14.5453 14.75 10.5921C14.75 6.63891 11.616 3.43421 7.75 3.43421ZM7.75 3.43421V0.75M9.06934 0.75L6.44434 0.75" stroke="#3A4E83" stroke-width="1.5" stroke-linecap="round"/>
</svg>
