<svg width="22" height="20" viewBox="0 0 22 20" fill="none" xmlns="http://www.w3.org/2000/svg">
<path d="M16.8333 7.6C16.8333 7.44087 16.7718 7.2883 16.6624 7.17578C16.553 7.06326 16.4047 7 16.25 7H13.9167C13.7216 7 13.5395 6.89973 13.4313 6.73281L12.4378 5.2H9.56217L8.56868 6.73281C8.4605 6.89973 8.27837 7 8.08333 7H5.75C5.59529 7 5.44696 7.06326 5.33757 7.17578C5.22817 7.2883 5.16667 7.44087 5.16667 7.6V14.2C5.16667 14.3591 5.22817 14.5117 5.33757 14.6242C5.44696 14.7367 5.59529 14.8 5.75 14.8H16.25C16.4047 14.8 16.553 14.7367 16.6624 14.6242C16.7718 14.5117 16.8333 14.3591 16.8333 14.2V7.6ZM12.75 10.6C12.75 9.60589 11.9665 8.8 11 8.8C10.0335 8.8 9.25 9.60589 9.25 10.6C9.25 11.5941 10.0335 12.4 11 12.4C11.9665 12.4 12.75 11.5941 12.75 10.6ZM13.9167 10.6C13.9167 12.2569 12.6108 13.6 11 13.6C9.38917 13.6 8.08333 12.2569 8.08333 10.6C8.08333 8.94315 9.38917 7.6 11 7.6C12.6108 7.6 13.9167 8.94315 13.9167 10.6ZM18 14.2C18 14.6774 17.8155 15.1351 17.4873 15.4727C17.1591 15.8102 16.7141 16 16.25 16H5.75C5.28587 16 4.84088 15.8102 4.5127 15.4727C4.18451 15.1351 4 14.6774 4 14.2V7.6C4 7.12261 4.18451 6.66491 4.5127 6.32734C4.84088 5.98978 5.28587 5.8 5.75 5.8H7.77116L8.76465 4.26719L8.80851 4.20801C8.91852 4.0769 9.07927 4 9.25 4H12.75C12.945 4 13.1272 4.10027 13.2354 4.26719L14.2288 5.8H16.25C16.7141 5.8 17.1591 5.98978 17.4873 6.32734C17.8155 6.66491 18 7.12261 18 7.6V14.2Z" fill="#3A4E83"/>
</svg>
