<svg width="22" height="22" viewBox="0 0 22 22" fill="none" xmlns="http://www.w3.org/2000/svg">
<path d="M4.17484 4.1748C4.40791 3.94173 4.78569 3.94173 5.01875 4.1748L10.0542 9.21031C10.0582 9.21409 10.062 9.21806 10.0659 9.22196L16.5887 15.7448C16.5913 15.7474 16.5939 15.75 16.5965 15.7526L17.7504 16.9065C17.9835 17.1396 17.9835 17.5174 17.7504 17.7505C17.5174 17.9835 17.1396 17.9835 16.9065 17.7505L15.9243 16.7682H5.75387C5.28875 16.7681 4.84255 16.5827 4.51365 16.2538C4.1848 15.9248 4 15.4787 4 15.0136V8.6477C4.00002 8.18254 4.18477 7.73642 4.51365 7.40747C4.84255 7.07857 5.28875 6.89391 5.75387 6.89382H6.04993L4.17484 5.01871C3.94178 4.78565 3.94178 4.40786 4.17484 4.1748ZM16.7317 14.0531V8.6477C16.7316 8.4991 16.6727 8.35649 16.5677 8.25138C16.4626 8.14633 16.32 8.08751 16.1714 8.08742H13.8565C13.6571 8.08742 13.4706 7.98749 13.3599 7.82166L12.3792 6.35063H9.22663C8.89703 6.35063 8.62984 6.08344 8.62984 5.75383C8.63003 5.42439 8.89715 5.15703 9.22663 5.15703H12.6986C12.898 5.15703 13.0845 5.25695 13.1952 5.4228L14.1759 6.89382H16.1714C16.6365 6.89391 17.0827 7.07857 17.4116 7.40747C17.7405 7.73642 17.9252 8.18254 17.9253 8.6477V14.0531C17.9252 14.3826 17.658 14.6499 17.3285 14.6499C16.9989 14.6499 16.7317 14.3826 16.7317 14.0531ZM9.62217 10.4661C9.56628 10.5343 9.51483 10.6064 9.46986 10.6829C9.34191 10.9004 9.2632 11.1434 9.23985 11.3947C9.2165 11.646 9.24896 11.8994 9.33465 12.1368C9.42035 12.3742 9.55713 12.5901 9.73562 12.7686C9.9141 12.947 10.13 13.0839 10.3674 13.1695C10.6048 13.2552 10.8582 13.2877 11.1095 13.2644C11.3608 13.241 11.6038 13.1623 11.8213 13.0343C11.8977 12.9894 11.9683 12.9363 12.0366 12.8805L9.62217 10.4661ZM5.19359 15.0136C5.19359 15.1622 5.25255 15.3048 5.35756 15.4099C5.46261 15.5149 5.60531 15.5745 5.75387 15.5746H14.7307L12.8843 13.7283C12.7431 13.8539 12.5905 13.9668 12.4266 14.0632C12.0579 14.2801 11.6458 14.4129 11.2198 14.4525C10.7939 14.4921 10.3642 14.4377 9.96175 14.2924C9.55944 14.1472 9.19418 13.9149 8.89171 13.6125C8.5893 13.3101 8.35702 12.9447 8.21177 12.5424C8.06655 12.1401 8.01136 11.7103 8.05091 11.2843C8.0905 10.8584 8.22411 10.4463 8.44101 10.0775C8.53742 9.91363 8.64953 9.7603 8.77515 9.61905L7.24353 8.08742H5.75387C5.60531 8.08751 5.46261 8.14633 5.35756 8.25138C5.25252 8.35649 5.19361 8.4991 5.19359 8.6477V15.0136Z" fill="#3A4E83"/>
</svg>
