<svg width="16" height="16" viewBox="0 0 16 16" fill="none" xmlns="http://www.w3.org/2000/svg">
<path d="M8 9.20219L5.46448 11.7377C5.30419 11.898 5.10018 11.9781 4.85246 11.9781C4.60474 11.9781 4.40073 11.898 4.24044 11.7377C4.08015 11.5774 4 11.3734 4 11.1257C4 10.878 4.08015 10.674 4.24044 10.5137L6.77596 7.97814L4.24044 5.46448C4.08015 5.30419 4 5.10018 4 4.85246C4 4.60474 4.08015 4.40073 4.24044 4.24044C4.40073 4.08015 4.60474 4 4.85246 4C5.10018 4 5.30419 4.08015 5.46448 4.24044L8 6.77596L10.5137 4.24044C10.674 4.08015 10.878 4 11.1257 4C11.3734 4 11.5774 4.08015 11.7377 4.24044C11.9126 4.4153 12 4.62295 12 4.86339C12 5.10383 11.9126 5.30419 11.7377 5.46448L9.20219 7.97814L11.7377 10.5137C11.898 10.674 11.9781 10.878 11.9781 11.1257C11.9781 11.3734 11.898 11.5774 11.7377 11.7377C11.5628 11.9126 11.3552 12 11.1148 12C10.8743 12 10.674 11.9126 10.5137 11.7377L8 9.20219Z" fill="#9C1F16"/>
</svg>
