<svg width="20" height="20" viewBox="0 0 20 20" fill="none" xmlns="http://www.w3.org/2000/svg">
<path fill-rule="evenodd" clip-rule="evenodd" d="M4.90909 3H15.0909C15.5976 3 16.0828 3.20125 16.4408 3.55921C16.7987 3.91716 17 4.40238 17 4.90909V15.0909C17 15.5968 16.7987 16.0828 16.4408 16.4408C16.0828 16.7987 15.5976 17 15.0909 17H4.90909C4.40238 17 3.91716 16.7987 3.55921 16.4408C3.20125 16.0828 3 15.5968 3 15.0909V4.90909C3 4.40238 3.20125 3.91716 3.55921 3.55921C3.91716 3.20125 4.40238 3 4.90909 3ZM6.81818 4.27273H4.90909C4.74046 4.27273 4.57898 4.33954 4.45887 4.45966C4.33955 4.57818 4.27274 4.74045 4.27274 4.90908V15.0909C4.27274 15.2595 4.33955 15.421 4.45887 15.5411C4.57898 15.6604 4.74046 15.7273 4.90909 15.7273H15.0909C15.2595 15.7273 15.421 15.6604 15.5411 15.5411C15.6604 15.421 15.7273 15.2595 15.7273 15.0909V4.90908C15.7273 4.74045 15.6604 4.57818 15.5411 4.45966C15.421 4.33955 15.2595 4.27273 15.0909 4.27273H13.1818V8.33344C13.1818 8.77492 12.9535 9.18458 12.5781 9.41685C12.2026 9.64832 11.7341 9.66901 11.3396 9.47253L10 8.80195L8.66048 9.47253C8.26593 9.66901 7.79741 9.64832 7.42196 9.41685C7.0465 9.18458 6.81822 8.77492 6.81822 8.33344L6.81818 4.27273ZM11.9091 4.27273H8.09091V8.33344L9.43045 7.66366C9.7892 7.48468 10.2108 7.48468 10.5696 7.66366L11.9091 8.33344V4.27273ZM6.18182 14.4545C5.83022 14.4545 5.54545 14.1698 5.54545 13.8182C5.54545 13.4674 5.83022 13.1818 6.18182 13.1818H8.09091C8.44251 13.1818 8.72727 13.4674 8.72727 13.8182C8.72727 14.1698 8.44251 14.4545 8.09091 14.4545H6.18182Z" fill="#3A4E83"/>
</svg>
