<svg width="22" height="22" viewBox="0 0 22 22" fill="none" xmlns="http://www.w3.org/2000/svg">
<path d="M16.7318 6.01107C16.7317 5.79429 16.6458 5.58622 16.4925 5.43293C16.3392 5.27963 16.1311 5.19368 15.9143 5.19359H6.01111C5.79432 5.19368 5.58625 5.27963 5.43295 5.43293C5.27966 5.58622 5.1937 5.79429 5.19361 6.01107V15.8877L7.00423 14.0771L7.09514 14.0025C7.19244 13.9377 7.30754 13.9023 7.42618 13.9023H15.9143C16.1311 13.9022 16.3392 13.8162 16.4925 13.6629C16.6458 13.5096 16.7318 13.3016 16.7318 13.0848V6.01107ZM17.9254 13.0848C17.9254 13.6181 17.7135 14.1297 17.3364 14.5068C16.9593 14.884 16.4477 15.0958 15.9143 15.0958H7.6733L5.01876 17.7503C4.84809 17.921 4.59134 17.9724 4.36834 17.8801C4.14533 17.7877 4 17.5698 4 17.3284V6.01107C4.00009 5.47773 4.21189 4.96615 4.58903 4.58902C4.96617 4.21189 5.47776 4.00009 6.01111 4H15.9143C16.4477 4.00009 16.9593 4.21189 17.3364 4.58902C17.7135 4.96615 17.9253 5.47773 17.9254 6.01107V13.0848Z" fill="#3A4E83"/>
</svg>
