<svg width="22" height="23" viewBox="0 0 22 23" fill="none" xmlns="http://www.w3.org/2000/svg">
<path d="M9.99554 19.7679H3.77679C2.79067 19.7679 2 18.9683 2 17.9911L2.00888 5.55357C2.00888 4.57634 2.79067 3.77679 3.77679 3.77679H4.66518V2.88839C4.66518 2.39978 5.06496 2 5.55357 2C6.04219 2 6.44196 2.39978 6.44196 2.88839V3.77679H13.5491V2.88839C13.5491 2.39978 13.9489 2 14.4375 2C14.9261 2 15.3259 2.39978 15.3259 2.88839V3.77679H16.2143C17.1915 3.77679 17.9911 4.57634 17.9911 5.55357V10.8839H16.2143V9.10714H3.77679V17.9911H9.99554V19.7679ZM18.995 15.317L19.6257 14.6863C19.9722 14.3398 19.9722 13.7801 19.6257 13.4336L18.995 12.8029C18.6485 12.4564 18.0888 12.4564 17.7423 12.8029L17.1116 13.4336L18.995 15.317ZM18.3642 15.9478L13.9133 20.3986C13.7534 20.5585 13.5225 20.6562 13.2915 20.6562H12.2165C11.9678 20.6562 11.7723 20.4608 11.7723 20.2121V19.1371C11.7723 18.8972 11.87 18.6751 12.03 18.5063L16.4808 14.0555L18.3642 15.9478Z" fill="#3A4E83"/>
</svg>
