<svg width="20" height="20" viewBox="0 0 20 20" fill="none" xmlns="http://www.w3.org/2000/svg">
<path d="M14.738 4.58737H14.0615V3.91087C14.0615 3.5388 13.7571 3.23438 13.385 3.23438C13.0129 3.23438 12.7085 3.5388 12.7085 3.91087V4.58737H7.29655V3.91087C7.29655 3.5388 6.99212 3.23438 6.62005 3.23438C6.24798 3.23438 5.94355 3.5388 5.94355 3.91087V4.58737H5.26706C4.51614 4.58737 3.92083 5.19622 3.92083 5.94036L3.91406 15.4113C3.91406 16.1555 4.51614 16.7643 5.26706 16.7643H14.738C15.4822 16.7643 16.091 16.1555 16.091 15.4113V5.94036C16.091 5.19622 15.4822 4.58737 14.738 4.58737ZM14.738 14.7348C14.738 15.1069 14.4336 15.4113 14.0615 15.4113H5.94355C5.57148 15.4113 5.26706 15.1069 5.26706 14.7348V7.96985H14.738V14.7348ZM6.62005 9.32285H7.97304V10.6758H6.62005V9.32285ZM9.32604 9.32285H10.679V10.6758H9.32604V9.32285ZM12.032 9.32285H13.385V10.6758H12.032V9.32285Z" fill="#3A4E83"/>
</svg>
