<svg width="174" height="25" viewBox="0 0 174 25" fill="none" xmlns="http://www.w3.org/2000/svg">
<path d="M138.811 11.7549C149.301 11.7549 159.791 11.8687 170.281 12.0947C171.447 12.1198 172.612 12.1459 173.777 12.1738C172.612 12.2017 171.447 12.2278 170.281 12.2529C159.791 12.479 149.301 12.5928 138.811 12.5928C128.321 12.5928 117.831 12.479 107.341 12.2529C106.175 12.2278 105.009 12.2017 103.844 12.1738C105.009 12.1459 106.175 12.1198 107.341 12.0947C117.831 11.8687 128.321 11.7549 138.811 11.7549Z" fill="#28365B"/>
<path d="M34.9668 11.7549C45.4569 11.7549 55.9474 11.8687 66.4375 12.0947C67.6029 12.1198 68.7682 12.1459 69.9336 12.1738C68.7682 12.2017 67.6029 12.2278 66.4375 12.2529C55.9474 12.479 45.4569 12.5928 34.9668 12.5928C24.4769 12.5928 13.987 12.479 3.49707 12.2529C2.33151 12.2278 1.16556 12.2017 0 12.1738C1.16556 12.1459 2.33151 12.1198 3.49707 12.0947C13.987 11.8687 24.4769 11.7549 34.9668 11.7549Z" fill="#28365B"/>
<path d="M86.8906 0C86.8906 0 86.5259 7.51491 89.0117 10.0005C91.4975 12.4862 99.013 12.1215 99.013 12.1215C99.013 12.1215 91.4856 11.7242 88.9895 14.2202C86.4933 16.7162 86.8906 24.243 86.8906 24.243C86.8906 24.243 87.2553 16.7281 84.7695 14.2425C82.2837 11.7569 74.7683 12.1215 74.7683 12.1215C74.7683 12.1215 82.2957 12.5188 84.7918 10.0228C87.2879 7.52686 86.8906 0 86.8906 0Z" fill="#28365B"/>
</svg>
