<svg width="22" height="22" viewBox="0 0 22 22" fill="none" xmlns="http://www.w3.org/2000/svg">
<path d="M16.9065 4.1748C17.1396 3.94173 17.5174 3.94173 17.7504 4.1748C17.9835 4.40786 17.9835 4.78564 17.7504 5.01871L11.0597 11.7086C11.3806 11.988 11.7223 12.2423 12.0808 12.4717L12.4872 12.0661C12.7257 11.8302 13.0272 11.6674 13.3552 11.5975C13.6824 11.5278 14.0227 11.5533 14.3359 11.6705C14.6981 11.8057 15.0717 11.9101 15.451 11.9821L15.8326 12.0435L15.838 12.0443C16.2594 12.1039 16.6445 12.3146 16.922 12.6372C17.1984 12.9585 17.3491 13.3691 17.3463 13.7927V15.5264L17.3378 15.709C17.3195 15.8904 17.2728 16.0681 17.1995 16.2359C17.1016 16.4596 16.9582 16.6606 16.7783 16.8257C16.5983 16.9908 16.3857 17.1165 16.1543 17.1948C15.923 17.273 15.6779 17.3022 15.4347 17.2803L15.4238 17.2795C13.5521 17.0761 11.754 16.4366 10.1739 15.413C9.6066 15.0528 9.07142 14.6451 8.57386 14.1945L5.01871 17.7504C4.78564 17.9835 4.40786 17.9835 4.1748 17.7504C3.94173 17.5174 3.94173 17.1396 4.1748 16.9065L9.73093 11.3496C9.74503 11.3319 9.76038 11.3147 9.77678 11.2983C9.79294 11.2822 9.80983 11.2671 9.82729 11.2532L16.9065 4.1748ZM9.41855 13.3498C9.78079 13.6742 10.1653 13.973 10.5686 14.245L10.8134 14.4059L10.8188 14.409C12.2401 15.3306 13.8574 15.9066 15.5412 16.0913C15.6189 16.0984 15.698 16.0892 15.772 16.0641C15.8459 16.0391 15.9142 15.9996 15.9717 15.9468C16.0292 15.894 16.0748 15.8295 16.1061 15.758C16.1374 15.6865 16.1531 15.6091 16.1527 15.5311V13.7865C16.154 13.6506 16.1061 13.5189 16.0175 13.4159C15.9288 13.3127 15.8056 13.2453 15.6709 13.2262C15.0726 13.1469 14.4849 12.9998 13.9194 12.7887H13.9178C13.8176 12.7511 13.7086 12.7431 13.6039 12.7654C13.4991 12.7878 13.4027 12.8393 13.3265 12.9146L12.5945 13.6474C12.4046 13.8373 12.1107 13.8772 11.8772 13.7446C11.2826 13.4065 10.7255 13.0069 10.2143 12.5541L9.41855 13.3498ZM8.13248 4.57888C8.55615 4.57607 8.96667 4.72683 9.288 5.00317C9.61058 5.28069 9.82132 5.66585 9.88091 6.0872L9.88169 6.09264C9.94901 6.60312 10.074 7.10451 10.2539 7.58696L10.2935 7.70586C10.3766 7.98593 10.3889 8.28299 10.3277 8.56997C10.2578 8.89798 10.095 9.1995 9.85915 9.43797L9.1217 10.1754C8.88866 10.4082 8.51079 10.4083 8.27779 10.1754C8.04473 9.94236 8.04473 9.5638 8.27779 9.33074L9.01291 8.59639C9.08702 8.52058 9.13763 8.42503 9.15978 8.32131C9.18212 8.21657 9.1741 8.10763 9.13647 8.00737V8.00581C8.92544 7.44028 8.7783 6.85265 8.69897 6.25427C8.6799 6.11962 8.61247 5.99637 8.50936 5.90769C8.40627 5.81912 8.2746 5.77117 8.13869 5.77248H6.39725L6.33897 5.77559C6.28119 5.78167 6.22449 5.79632 6.17112 5.81988C6.09994 5.85132 6.03631 5.89763 5.98384 5.95509C5.93137 6.01258 5.89135 6.08026 5.86651 6.15403C5.84284 6.22431 5.83331 6.29848 5.83853 6.37239L5.87738 6.68866C6.0953 8.2627 6.65647 9.77094 7.52247 11.1064C7.7018 11.3829 7.62261 11.7531 7.34607 11.9324C7.06956 12.1115 6.70008 12.0325 6.52081 11.756C5.49541 10.1748 4.8555 8.37495 4.65193 6.50138L4.65037 6.4905C4.62851 6.24815 4.65744 6.00388 4.73507 5.77326C4.81281 5.54246 4.93767 5.3299 5.10186 5.15004C5.266 4.97022 5.46586 4.82648 5.68855 4.72808C5.91124 4.62972 6.15226 4.57915 6.3957 4.57888H8.13248Z" fill="white"/>
</svg>
