<svg width="65" height="65" viewBox="0 0 65 65" fill="none" xmlns="http://www.w3.org/2000/svg">
<circle cx="32.5" cy="32.5" r="32" fill="#CFEBE3" stroke="#85DEBB"/>
<path d="M42.5 27.25H42.291C42.1502 27.2511 42.01 27.2682 41.873 27.3008C41.6582 24.9635 40.5778 22.7908 38.8438 21.2089C37.1098 19.6269 34.8473 18.75 32.5001 18.75C30.153 18.75 27.8905 19.627 26.1565 21.2089C24.4225 22.7909 23.3422 24.9636 23.1274 27.3009C22.9903 27.2682 22.8499 27.2511 22.709 27.25H22.5C21.5058 27.2511 20.5526 27.6465 19.8495 28.3496C19.1465 29.0526 18.7511 30.0058 18.75 31V32C18.7511 32.9942 19.1465 33.9474 19.8495 34.6505C20.5526 35.3535 21.5058 35.7489 22.5 35.75H22.709C23.2059 35.7495 23.6823 35.5519 24.0337 35.2006C24.3851 34.8493 24.5829 34.3729 24.5835 33.876V28.1665C24.5859 26.0684 25.421 24.057 26.9054 22.5743C28.3898 21.0915 30.4021 20.2587 32.5002 20.2587C34.5984 20.2587 36.6107 21.0915 38.0951 22.5743C39.5795 24.057 40.4146 26.0684 40.417 28.1665V32.8335H38.919C39.1002 32.1147 39.1933 31.3765 39.1963 30.6353C39.1963 26.2871 36.1924 22.75 32.5 22.75C28.8081 22.75 25.8042 26.2871 25.8042 30.6353C25.7843 31.8137 26.0117 32.9833 26.4715 34.0685C26.9314 35.1538 27.6136 36.1306 28.4741 36.936L25.3662 37.9707C24.4424 38.2776 23.5968 38.7825 22.8885 39.4502C22.1802 40.118 21.6264 40.9323 21.2656 41.8364L20.564 43.5908C20.4464 43.8851 20.4026 44.2037 20.4366 44.5187C20.4706 44.8338 20.5813 45.1357 20.7589 45.3981C20.9366 45.6605 21.1759 45.8754 21.4558 46.0239C21.7358 46.1724 22.0479 46.25 22.3647 46.25H42.6357C42.9526 46.25 43.2646 46.1723 43.5445 46.0238C43.8244 45.8752 44.0636 45.6604 44.2412 45.398C44.4188 45.1356 44.5294 44.8336 44.5633 44.5186C44.5972 44.2035 44.5533 43.885 44.4356 43.5908L43.7344 41.8369C43.3738 40.9327 42.82 40.1181 42.1117 39.4503C41.4034 38.7825 40.5577 38.2775 39.6338 37.9707L36.5264 36.936C37.3285 36.2102 37.9686 35.3234 38.4048 34.3335H40.4802C40.5817 34.7373 40.8147 35.0958 41.1427 35.3523C41.4706 35.6088 41.8747 35.7488 42.291 35.75H42.5C43.4942 35.7488 44.4474 35.3534 45.1504 34.6504C45.8534 33.9474 46.2488 32.9942 46.25 32V31C46.2488 30.0058 45.8534 29.0527 45.1504 28.3497C44.4474 27.6466 43.4942 27.2512 42.5 27.25ZM23.0835 33.876C23.0833 33.9752 23.0437 34.0703 22.9735 34.1404C22.9033 34.2105 22.8082 34.2499 22.709 34.25H22.5C21.9035 34.2494 21.3315 34.0121 20.9097 33.5903C20.4879 33.1685 20.2507 32.5966 20.25 32V31C20.2507 30.4035 20.4879 29.8316 20.9097 29.4097C21.3315 28.9879 21.9035 28.7507 22.5 28.75H22.709C22.8082 28.7501 22.9034 28.7895 22.9736 28.8596C23.0438 28.9297 23.0833 29.0248 23.0835 29.124L23.0835 33.876ZM35.3828 35.94C35.1922 36.0956 35.0468 36.2994 34.9616 36.5302C34.8764 36.761 34.8546 37.0104 34.8984 37.2525C34.9406 37.4872 35.0457 37.7059 35.2026 37.8854C35.3594 38.0649 35.5622 38.1984 35.7891 38.2715L39.1592 39.3936C39.8762 39.6316 40.5325 40.0234 41.0822 40.5416C41.632 41.0598 42.0619 41.6919 42.3418 42.3936L43.043 44.1475C43.0697 44.2141 43.0797 44.2862 43.0721 44.3576C43.0644 44.429 43.0394 44.4974 42.9993 44.5568C42.9591 44.6163 42.9049 44.665 42.8415 44.6987C42.7782 44.7324 42.7075 44.75 42.6357 44.75H22.3647C22.293 44.7501 22.2223 44.7325 22.1589 44.6989C22.0955 44.6653 22.0412 44.6167 22.001 44.5573C21.9607 44.4979 21.9356 44.4296 21.9278 44.3582C21.9201 44.2869 21.9299 44.2147 21.9565 44.148L22.6582 42.394C22.9382 41.6924 23.368 41.0603 23.9176 40.5421C24.4673 40.0238 25.1235 39.6318 25.8403 39.3935L29.2114 38.2715C29.4382 38.1981 29.6407 38.0646 29.7975 37.8851C29.9543 37.7057 30.0594 37.487 30.1016 37.2525C30.1454 37.0104 30.1236 36.7609 30.0384 36.5301C29.9532 36.2993 29.8078 36.0955 29.6172 35.94C28.8689 35.2773 28.2743 34.4593 27.8748 33.5431C27.4753 32.6269 27.2806 31.6345 27.3042 30.6353C27.3042 27.1143 29.6352 24.25 32.5 24.25C35.3652 24.25 37.6963 27.1143 37.6963 30.6353C37.6958 31.3799 37.5868 32.1204 37.3725 32.8335H34.0181C33.7336 32.6172 33.3857 32.5008 33.0284 32.5023C32.671 32.5038 32.3241 32.6231 32.0415 32.8418C31.7588 33.0605 31.5562 33.3663 31.465 33.7118C31.3739 34.0574 31.3992 34.4233 31.5372 34.753C31.6751 35.0827 31.9179 35.3576 32.228 35.5352C32.5381 35.7129 32.8982 35.7832 33.2523 35.7354C33.6065 35.6876 33.935 35.5244 34.1869 35.2709C34.4388 35.0174 34.6001 34.688 34.6458 34.3335H36.7288C36.3788 34.9445 35.9231 35.4885 35.3828 35.94ZM44.75 32C44.7493 32.5965 44.512 33.1684 44.0902 33.5902C43.6684 34.012 43.0965 34.2493 42.5 34.25H42.291C42.1919 34.2498 42.0968 34.2104 42.0267 34.1403C41.9566 34.0702 41.9172 33.9751 41.917 33.876V29.124C41.9172 29.0249 41.9566 28.9299 42.0267 28.8598C42.0968 28.7897 42.1919 28.7502 42.291 28.75H42.5C43.0965 28.7507 43.6684 28.988 44.0902 29.4098C44.512 29.8316 44.7493 30.4035 44.75 31V32Z" fill="#3DBE8C"/>
</svg>
