<svg width="20" height="20" viewBox="0 0 20 20" fill="none" xmlns="http://www.w3.org/2000/svg">
<path d="M3.4 16.6004C2.94625 16.6004 2.55795 16.439 2.2351 16.1161C1.9117 15.7927 1.75 15.4041 1.75 14.9504V5.05039C1.75 4.59664 1.9117 4.20834 2.2351 3.88549C2.55795 3.56209 2.94625 3.40039 3.4 3.40039H13.3C13.7537 3.40039 14.1423 3.56209 14.4657 3.88549C14.7886 4.20834 14.95 4.59664 14.95 5.05039V8.76289L17.5487 6.16414C17.6862 6.02664 17.8375 5.99227 18.0025 6.06102C18.1675 6.12977 18.25 6.26039 18.25 6.45289V13.5479C18.25 13.7404 18.1675 13.871 18.0025 13.9398C17.8375 14.0085 17.6862 13.9741 17.5487 13.8366L14.95 11.2379V14.9504C14.95 15.4041 14.7886 15.7927 14.4657 16.1161C14.1423 16.439 13.7537 16.6004 13.3 16.6004H3.4ZM3.4 14.9504H13.3V5.05039H3.4V14.9504Z" fill="#B8C3E0"/>
</svg>
