<svg width="22" height="22" viewBox="0 0 22 22" fill="none" xmlns="http://www.w3.org/2000/svg">
<path d="M6.45189 7.8185C6.29397 7.8185 6.16586 7.94722 6.16586 8.10588C6.16586 8.26455 6.29397 8.39263 6.45189 8.39263C6.60918 8.39263 6.73729 8.26455 6.73729 8.10588C6.73729 7.94722 6.60918 7.8185 6.45189 7.8185ZM7.62078 7.8185V7.81914C7.46285 7.8185 7.33474 7.94722 7.33474 8.10588C7.33474 8.26391 7.46285 8.39263 7.62078 8.39263H11.9982C12.1555 8.39263 12.2836 8.26455 12.2836 8.10588C12.2836 7.94722 12.1555 7.8185 11.9982 7.8185L7.62078 7.8185ZM7.62078 10.7108V10.7114C7.46285 10.7108 7.33474 10.8395 7.33474 10.9981C7.33474 11.1568 7.46285 11.2849 7.62078 11.2849H9.82404C9.98196 11.2849 10.1101 11.1568 10.1101 10.9981C10.1101 10.8395 9.98196 10.7114 9.82404 10.7114L7.62078 10.7108ZM6.45189 10.7108V10.7114C6.29397 10.7108 6.16586 10.8395 6.16586 10.9981C6.16586 11.1568 6.29397 11.2849 6.45189 11.2849C6.60918 11.2849 6.73729 11.1568 6.73729 10.9981C6.73729 10.8395 6.60918 10.7108 6.45189 10.7108ZM7.62078 13.6037C7.46285 13.6037 7.33474 13.7324 7.33474 13.8904C7.33474 14.0491 7.46285 14.1778 7.62078 14.1778H8.90318C9.06111 14.1778 9.18922 14.0491 9.18922 13.8904C9.18922 13.7324 9.0611 13.6037 8.90318 13.6037H7.62078ZM6.45189 13.6037C6.29397 13.6037 6.16586 13.7318 6.16586 13.8904C6.16586 14.0491 6.29397 14.1778 6.45189 14.1778C6.60918 14.1778 6.73729 14.0491 6.73729 13.8904C6.73729 13.7318 6.60918 13.6037 6.45189 13.6037ZM14.1248 11.6983V11.699C13.9669 11.6983 13.8394 11.8271 13.8394 11.9857V14.1038C13.8394 14.2147 13.9003 14.3102 13.9917 14.3587L15.621 15.3037C15.666 15.3292 15.7155 15.3419 15.7637 15.3419C15.8626 15.3419 15.9584 15.2903 16.011 15.1985C16.0903 15.0609 16.0434 14.8856 15.907 14.806L14.4109 13.9388L14.4102 11.9856C14.4102 11.827 14.2828 11.6983 14.1248 11.6983ZM14.1248 10.9477C15.8602 10.9477 17.2669 12.3604 17.2669 14.1039C17.2669 15.8474 15.8602 17.2607 14.1248 17.2607C12.3895 17.2607 10.9834 15.8474 10.9834 14.1039C10.9834 12.3604 12.3895 10.9477 14.1248 10.9477ZM5.62173 4.16384C4.8169 4.17085 4.16553 4.82719 4.16236 5.63645V16.3608C4.16553 17.1707 4.81688 17.8334 5.62173 17.8341C11.0762 17.8404 11.0775 17.8341 11.0775 17.8341C11.2354 17.8341 11.3635 17.706 11.3635 17.5473C11.3635 17.3886 11.2354 17.2599 11.0775 17.2599C11.0724 17.2599 5.62498 17.2606 5.62498 17.2606C5.13409 17.2548 4.73451 16.8572 4.73451 16.364L4.73388 5.63898C4.73578 5.14451 5.13344 4.74305 5.62498 4.73732H12.8342C13.3226 4.74752 13.7139 5.14769 13.7164 5.63898C13.7171 5.7454 13.7164 9.49729 13.7164 9.49729C13.7164 9.65595 13.8439 9.78467 14.0018 9.78467C14.1598 9.78467 14.2879 9.65595 14.2879 9.49729V5.63637C14.2841 4.82711 13.6353 4.17076 12.8298 4.16313L5.62173 4.16384ZM14.1248 10.3735C12.0744 10.3735 10.4121 12.0436 10.4121 14.1037C10.4121 16.1639 12.0744 17.834 14.1248 17.834C16.1753 17.834 17.8376 16.1639 17.8376 14.1037C17.8376 12.0436 16.1753 10.3735 14.1248 10.3735Z" fill="#28365B"/>
<path d="M17.8376 14.1037C17.8376 12.0758 16.2268 10.4258 14.2206 10.3747L14.1248 10.3735C12.0744 10.3735 10.4121 12.0436 10.4121 14.1037L10.4133 14.2C10.4633 16.1837 12.0547 17.7825 14.0291 17.8327L14.1248 17.834C16.1433 17.834 17.7856 16.2156 17.8364 14.2L17.8376 14.1037ZM17.1045 14.1039C17.1045 12.4506 15.7706 11.1109 14.1249 11.1109C12.4792 11.1109 11.1459 12.4505 11.1459 14.1039C11.1459 15.7573 12.4793 17.0976 14.1249 17.0976L14.1248 17.2607L14.0437 17.2597C12.3728 17.2172 11.0267 15.8641 10.9845 14.1853L10.9834 14.1039C10.9834 12.3604 12.3895 10.9477 14.1248 10.9477L14.2059 10.9487C15.9038 10.9919 17.2669 12.3876 17.2669 14.1039L17.2659 14.1853C17.2229 15.8912 15.8331 17.2607 14.1248 17.2607L14.1249 17.0976C15.7705 17.0976 17.1045 15.7573 17.1045 14.1039ZM14.4102 11.9856C14.4102 11.827 14.2828 11.6983 14.1248 11.6983V11.699C13.9669 11.6983 13.8394 11.8271 13.8394 11.9857V14.1038L13.8401 14.1245C13.8471 14.2265 13.9061 14.3133 13.9917 14.3587L15.621 15.3037C15.6547 15.3228 15.691 15.3347 15.7274 15.3395L15.7637 15.3419C15.8626 15.3419 15.9584 15.2903 16.011 15.1985C16.0853 15.0695 16.0487 14.9074 15.9315 14.822L15.907 14.806L14.4109 13.9388L14.4102 11.9856ZM6.73729 13.8904C6.73729 13.7416 6.62466 13.6197 6.48095 13.6051L6.45189 13.6037C6.29397 13.6037 6.16586 13.7318 6.16586 13.8904L6.16732 13.9197C6.18098 14.055 6.28802 14.1626 6.4226 14.1764L6.45189 14.1778C6.59935 14.1778 6.72112 14.0646 6.73575 13.9197L6.73729 13.8904ZM7.17242 13.8904C7.17242 13.6421 7.37346 13.4406 7.62082 13.4406L7.62078 13.6037C7.46285 13.6037 7.33474 13.7324 7.33474 13.8904L7.33621 13.9197C7.34986 14.055 7.45691 14.1626 7.59149 14.1764L7.62078 14.1778H8.90318C9.05123 14.1778 9.17305 14.0646 9.18769 13.9197L9.18922 13.8904C9.18922 13.7423 9.07661 13.6198 8.93241 13.6051L8.90318 13.6037L8.90323 13.4406C9.15057 13.4406 9.35164 13.6421 9.35164 13.8904C9.35163 14.1392 9.1508 14.3409 8.90323 14.3409H7.62082C7.37324 14.3409 7.17243 14.1392 7.17242 13.8904ZM8.90323 13.4406L8.90318 13.6037H7.62078L7.62082 13.4406H8.90323ZM6.73729 10.9981C6.73729 10.8395 6.60918 10.7108 6.45189 10.7108V10.7114C6.29397 10.7108 6.16586 10.8395 6.16586 10.9981L6.16732 11.0276C6.18102 11.1627 6.28806 11.2697 6.4226 11.2834L6.45189 11.2849C6.59931 11.2849 6.72107 11.1723 6.73575 11.0276L6.73729 10.9981ZM10.1101 10.9981C10.1101 10.8395 9.98196 10.7114 9.82404 10.7114L7.62078 10.7108V10.7114C7.46285 10.7108 7.33474 10.8395 7.33474 10.9981L7.33621 11.0276C7.34991 11.1627 7.45695 11.2697 7.59149 11.2834L7.62078 11.2849H9.82404C9.98196 11.2849 10.1101 11.1568 10.1101 10.9981ZM14.2879 5.63637C14.2841 4.82711 13.6353 4.17076 12.8298 4.16313L5.62173 4.16384C4.8169 4.17085 4.16553 4.82719 4.16236 5.63645V16.3608C4.16553 17.1707 4.81688 17.8334 5.62173 17.8341C10.9496 17.8403 11.0745 17.8343 11.0775 17.8341C11.2354 17.8341 11.3635 17.706 11.3635 17.5473C11.3635 17.3886 11.2354 17.2599 11.0775 17.2599C11.0538 17.2599 5.64884 17.2606 5.62498 17.2606L5.57923 17.2589C5.1095 17.2299 4.73451 16.8418 4.73451 16.364L4.73388 5.63898C4.73578 5.14451 5.13344 4.74305 5.62498 4.73732H12.8342C13.3226 4.74752 13.7139 5.14769 13.7164 5.63898C13.7171 5.7454 13.7164 9.49729 13.7164 9.49729L13.7178 9.5266C13.7314 9.66187 13.8381 9.76951 13.9726 9.78324L14.0018 9.78467C14.1499 9.78467 14.2718 9.67151 14.2864 9.5266L14.2879 9.49729V5.63637ZM6.73729 8.10588C6.73729 7.95711 6.62466 7.83466 6.48095 7.81997L6.45189 7.8185C6.29397 7.8185 6.16586 7.94722 6.16586 8.10588L6.16732 8.13523C6.18099 8.27038 6.28804 8.37737 6.4226 8.39108L6.45189 8.39263C6.59934 8.39261 6.72111 8.28003 6.73575 8.13523L6.73729 8.10588ZM7.17242 8.10592C7.17242 7.91494 7.291 7.75162 7.45846 7.68647V7.65541H11.9983L11.9982 7.8185L7.62078 7.8185V7.81914C7.46285 7.8185 7.33474 7.94722 7.33474 8.10588L7.33621 8.13507C7.34985 8.26982 7.45691 8.37731 7.59149 8.39108L7.62078 8.39263H11.9982C12.1457 8.39261 12.2675 8.28003 12.2821 8.13523L12.2836 8.10588C12.2836 7.95711 12.171 7.83466 12.0273 7.81997L11.9982 7.8185L11.9983 7.65541C12.2455 7.65543 12.446 7.85741 12.446 8.10592C12.446 8.35488 12.245 8.55578 11.9983 8.5558H7.62082C7.37348 8.5558 7.17244 8.35426 7.17242 8.10592ZM18 14.1037C18 16.254 16.265 17.9971 14.1249 17.9972C11.9847 17.9972 10.2497 16.254 10.2497 14.1037C10.2497 11.9535 11.9847 10.2103 14.1249 10.2103C16.265 10.2103 18 11.9535 18 14.1037ZM6.8997 13.8904C6.89969 14.1389 6.6991 14.3409 6.45193 14.3409C6.20435 14.3409 6.00354 14.1392 6.00353 13.8904C6.00353 13.6412 6.20481 13.4406 6.45193 13.4406C6.69864 13.4406 6.8997 13.6415 6.8997 13.8904ZM14.5731 13.8444L15.9881 14.6647L15.9885 14.665L16.0269 14.69C16.2104 14.8236 16.2679 15.0776 16.1515 15.2799C16.0688 15.4242 15.9184 15.505 15.7637 15.505C15.6872 15.505 15.6103 15.4848 15.5412 15.4457L15.5398 15.4449L13.9105 14.4999C13.7703 14.4231 13.6771 14.2744 13.6771 14.1037V11.9858C13.6771 11.7951 13.7951 11.6316 13.9625 11.5663V11.5353H14.1249C14.3728 11.5353 14.5726 11.7373 14.5726 11.9856L14.5731 13.8444ZM6.8997 10.9981C6.8997 11.2471 6.69864 11.448 6.45193 11.448C6.20481 11.448 6.00353 11.2473 6.00353 10.9981C6.00355 10.8071 6.12211 10.6438 6.28957 10.5786V10.5476H6.45193C6.69909 10.5476 6.89968 10.7496 6.8997 10.9981ZM10.2724 10.9981C10.2724 11.2473 10.0711 11.448 9.82398 11.448H7.62082C7.3737 11.448 7.17242 11.2473 7.17242 10.9981C7.17244 10.8071 7.291 10.6438 7.45846 10.5786V10.5476L9.82414 10.5482C10.0712 10.5483 10.2724 10.7489 10.2724 10.9981ZM6.8997 8.10592C6.89968 8.35488 6.69863 8.55577 6.45193 8.5558C6.20483 8.5558 6.00355 8.35514 6.00353 8.10592C6.00353 7.85716 6.20434 7.65541 6.45193 7.65541C6.69911 7.65543 6.8997 7.85741 6.8997 8.10592ZM14.4502 9.49729C14.4502 9.74604 14.2494 9.9478 14.0018 9.9478C13.7538 9.94779 13.554 9.74557 13.554 9.49729V9.33591C13.5541 9.23311 13.5542 9.08599 13.5542 8.90929C13.5543 8.55592 13.5543 8.08367 13.5544 7.60809L13.554 5.63988C13.552 5.24938 13.2507 4.92936 12.8681 4.90214L12.8309 4.90039H5.6268C5.22379 4.90512 4.89775 5.23445 4.89617 5.63956L4.8968 16.364C4.8968 16.7658 5.22287 17.0926 5.6268 17.0974H6.47619C6.98695 17.0973 7.66801 17.0972 8.34923 17.0971L11.0774 17.0968C11.325 17.0968 11.5258 17.2985 11.5258 17.5473C11.5258 17.7915 11.3325 17.9886 11.0921 17.9964C11.0904 17.9965 11.0891 17.9968 11.0886 17.9968C11.0854 17.9971 11.0826 17.9971 11.0815 17.9972C11.0786 17.9972 11.0747 17.9974 11.0691 17.9975C11.0577 17.9976 11.0357 17.9979 10.993 17.9981C10.9073 17.9986 10.7363 17.9991 10.3953 17.9995C10.0541 17.9999 9.54246 18.0002 8.77528 17.9999L5.62157 17.9972C4.72579 17.9964 4.00352 17.2595 4 16.3614V5.63574L4.00238 5.55211C4.04882 4.69232 4.75465 4.00835 5.6203 4.0008L5.62173 4.00064L12.8313 4L12.9146 4.00287C13.77 4.05415 14.4461 4.76539 14.4502 5.63558V9.49729Z" fill="#28365B"/>
</svg>
