<svg width="21" height="21" viewBox="0 0 21 21" fill="none" xmlns="http://www.w3.org/2000/svg">
<path d="M7.40688 4.56695C7.81836 4.56424 8.21686 4.71043 8.52895 4.97835C8.80321 5.21381 8.99468 5.52915 9.07695 5.87812L9.10523 6.02983L9.10579 6.03481C9.17203 6.53622 9.29486 7.0288 9.47186 7.50268C9.58648 7.80708 9.61136 8.13811 9.54341 8.45615C9.47547 8.77418 9.31762 9.066 9.08859 9.29723L8.67981 9.70531C9.34766 10.7513 10.2367 11.6382 11.2845 12.3049L11.6933 11.8974C11.9248 11.6688 12.2173 11.5112 12.5358 11.4434C12.8538 11.3757 13.1848 11.4004 13.4892 11.5143C13.9644 11.6913 14.4585 11.814 14.9613 11.8802L14.9663 11.8808C15.3801 11.9391 15.7583 12.1472 16.0284 12.4655C16.2956 12.7803 16.4379 13.1813 16.4311 13.5934L16.4317 15.2922L16.43 15.3808C16.4201 15.5873 16.3723 15.7905 16.2891 15.9804C16.1941 16.1974 16.0546 16.3923 15.8798 16.5524C15.705 16.7124 15.4988 16.8342 15.2741 16.9101C15.0494 16.986 14.811 17.0144 14.5747 16.9931C14.5713 16.9928 14.5676 16.9924 14.5642 16.992C12.7283 16.7928 10.9647 16.1667 9.41529 15.1637C7.97464 14.2489 6.75297 13.0287 5.8372 11.5901C4.83047 10.0372 4.20362 8.26902 4.00795 6.4296C4.00765 6.42674 4.0071 6.42361 4.00684 6.42074C3.9856 6.18565 4.01401 5.94844 4.08948 5.72474C4.16499 5.50109 4.28619 5.29552 4.44557 5.1212C4.60505 4.9468 4.79938 4.80743 5.01576 4.71202C5.2321 4.61664 5.46592 4.56718 5.70242 4.56695H7.40688ZM5.64474 5.70425C5.58614 5.7104 5.52857 5.72524 5.47446 5.7491C5.40235 5.78091 5.33791 5.82775 5.28477 5.88587C5.23166 5.94396 5.19124 6.01234 5.16607 6.08686C5.14186 6.15862 5.13216 6.23455 5.13778 6.31L5.1755 6.62118C5.3729 8.06971 5.86678 9.46218 6.62648 10.7119L6.79288 10.9777L6.79565 10.9816C7.62293 12.2812 8.72685 13.3832 10.0287 14.2091L10.0332 14.2119C11.4312 15.1169 13.0221 15.6825 14.6784 15.8636C14.7567 15.8704 14.8358 15.861 14.9103 15.8359C14.9851 15.8106 15.054 15.7702 15.1122 15.7169C15.1704 15.6635 15.2169 15.5986 15.2486 15.5264C15.2803 15.454 15.2961 15.3755 15.2957 15.2966V13.5934C15.2957 13.5888 15.2962 13.5842 15.2963 13.5796C15.2998 13.4405 15.2516 13.3047 15.1615 13.1986C15.0725 13.0939 14.9486 13.0246 14.8126 13.0043C14.225 12.9269 13.648 12.7837 13.0927 12.5768L13.091 12.5763C12.9895 12.5382 12.8792 12.5299 12.7732 12.5524C12.667 12.575 12.5692 12.6274 12.492 12.7036L11.7731 13.4218C11.5923 13.6022 11.3126 13.6398 11.0903 13.5137C9.57962 12.6561 8.32859 11.4072 7.46956 9.8991C7.34324 9.67724 7.38142 9.3985 7.56218 9.21805L8.28046 8.4999C8.3568 8.42284 8.40978 8.32571 8.43244 8.21972C8.45509 8.1137 8.4468 8.00337 8.40859 7.9019L8.40803 7.90079C8.20141 7.34802 8.05808 6.77361 7.98039 6.18874L7.97096 6.1378C7.94354 6.02161 7.87978 5.91669 7.78848 5.83825C7.68398 5.74854 7.55024 5.69958 7.41243 5.70093H5.70353L5.64474 5.70425ZM16.0301 4.16607C16.2519 3.94464 16.612 3.94464 16.8338 4.16607C17.0554 4.38745 17.0554 4.74644 16.8338 4.96783L13.8276 7.9689H15.8637C16.1774 7.9689 16.4317 8.22275 16.4317 8.53589C16.4317 8.84903 16.1774 9.10288 15.8637 9.10288H12.4559C12.1423 9.10275 11.8879 8.84895 11.8879 8.53589V5.13394C11.8879 4.82088 12.1423 4.56708 12.4559 4.56695C12.7696 4.56695 13.0239 4.8208 13.0239 5.13394V7.16713L16.0301 4.16607Z" fill="#28365B"/>
</svg>
