<svg width="56" height="56" viewBox="0 0 56 56" fill="none" xmlns="http://www.w3.org/2000/svg">
<circle cx="28" cy="28" r="28" fill="#2B3959"/>
<path d="M37.3725 32.9201V35.9201C37.3736 36.1986 37.3166 36.4743 37.205 36.7294C37.0934 36.9846 36.9298 37.2137 36.7246 37.402C36.5193 37.5902 36.2771 37.7336 36.0132 37.8228C35.7494 37.912 35.4699 37.9452 35.1925 37.9201C32.1153 37.5857 29.1595 36.5342 26.5625 34.8501C24.1463 33.3148 22.0978 31.2663 20.5625 28.8501C18.8725 26.2413 17.8207 23.2711 17.4925 20.1801C17.4675 19.9036 17.5004 19.6249 17.589 19.3617C17.6776 19.0986 17.8201 18.8568 18.0073 18.6517C18.1945 18.4466 18.4223 18.2828 18.6763 18.1706C18.9303 18.0584 19.2048 18.0004 19.4825 18.0001H22.4825C22.9678 17.9953 23.4383 18.1672 23.8063 18.4836C24.1742 18.8001 24.4146 19.2395 24.4825 19.7201C24.6091 20.6802 24.8439 21.6228 25.1825 22.5301C25.317 22.888 25.3462 23.277 25.2664 23.651C25.1866 24.0249 25.0014 24.3682 24.7325 24.6401L23.4625 25.9101C24.886 28.4136 26.9589 30.4865 29.4625 31.9101L30.7325 30.6401C31.0044 30.3712 31.3476 30.1859 31.7216 30.1062C32.0956 30.0264 32.4846 30.0556 32.8425 30.1901C33.7498 30.5286 34.6924 30.7635 35.6525 30.8901C36.1383 30.9586 36.5819 31.2033 36.899 31.5776C37.2162 31.9519 37.3847 32.4297 37.3725 32.9201Z" stroke="white" stroke-width="2" stroke-linecap="round" stroke-linejoin="round"/>
</svg>
