<svg width="20" height="20" viewBox="0 0 20 20" fill="none" xmlns="http://www.w3.org/2000/svg">
<path d="M5 10V8.75C5 8.40482 5.27982 8.125 5.625 8.125C5.97018 8.125 6.25 8.40482 6.25 8.75V10C6.25 10.9946 6.64537 11.9481 7.34863 12.6514C8.05189 13.3546 9.00544 13.75 10 13.75C10.9946 13.75 11.9481 13.3546 12.6514 12.6514C13.3546 11.9481 13.75 10.9946 13.75 10V8.75C13.75 8.40482 14.0298 8.125 14.375 8.125C14.7202 8.125 15 8.40482 15 8.75V10C15 11.3261 14.4734 12.5981 13.5358 13.5358C12.7467 14.3249 11.7205 14.8211 10.625 14.9591V16.25H12.5C12.8452 16.25 13.125 16.5298 13.125 16.875C13.125 17.2202 12.8452 17.5 12.5 17.5H7.5C7.15482 17.5 6.875 17.2202 6.875 16.875C6.875 16.5298 7.15482 16.25 7.5 16.25H9.375V14.9591C8.27945 14.8211 7.25332 14.3249 6.46423 13.5358C5.52655 12.5981 5 11.3261 5 10ZM11.25 5C11.25 4.66848 11.1182 4.35063 10.8838 4.11621C10.6494 3.88179 10.3315 3.75 10 3.75C9.66848 3.75 9.35063 3.88179 9.11621 4.11621C8.88179 4.35063 8.75 4.66848 8.75 5V10C8.75 10.3315 8.88179 10.6494 9.11621 10.8838C9.35063 11.1182 9.66848 11.25 10 11.25C10.3315 11.25 10.6494 11.1182 10.8838 10.8838C11.1182 10.6494 11.25 10.3315 11.25 10V5ZM12.5 10C12.5 10.663 12.2364 11.2987 11.7676 11.7676C11.2987 12.2364 10.663 12.5 10 12.5C9.33696 12.5 8.70126 12.2364 8.23242 11.7676C7.76358 11.2987 7.5 10.663 7.5 10V5C7.5 4.33696 7.76358 3.70126 8.23242 3.23242C8.70126 2.76358 9.33696 2.5 10 2.5C10.663 2.5 11.2987 2.76358 11.7676 3.23242C12.2364 3.70126 12.5 4.33696 12.5 5V10Z" fill="#3A4E83"/>
</svg>
