<svg width="22" height="22" viewBox="0 0 22 22" fill="none" xmlns="http://www.w3.org/2000/svg">
<path d="M4.17473 4.17656C4.40775 3.94361 4.78556 3.9436 5.01859 4.17656L14.1573 13.3148C14.1982 13.3389 14.2376 13.3671 14.2731 13.4018C14.3107 13.4386 14.3406 13.4807 14.3663 13.5238L17.7496 16.9074C17.9826 17.1405 17.9826 17.5183 17.7496 17.7514C17.5165 17.9845 17.1388 17.9844 16.9057 17.7514L13.8154 14.6608C13.2539 15.0977 12.5978 15.4027 11.8954 15.5467C11.7837 15.5696 11.6714 15.5873 11.5589 15.6019V16.7326H13.2769C13.6065 16.7326 13.8737 16.9998 13.8737 17.3294C13.8737 17.659 13.6065 17.9262 13.2769 17.9263H8.64735C8.3178 17.9262 8.05059 17.659 8.05059 17.3294C8.05059 16.9998 8.3178 16.7326 8.64735 16.7326H10.3654V15.6019C9.96372 15.5499 9.56822 15.4464 9.18972 15.2902C8.33357 14.9371 7.60246 14.3358 7.09017 13.5642C6.57802 12.7928 6.30799 11.886 6.31469 10.9601V9.80684C6.31469 9.47721 6.58187 9.21 6.91145 9.21C7.241 9.21004 7.50821 9.47724 7.50821 9.80684V10.9686C7.50322 11.6568 7.7041 12.3311 8.08478 12.9045C8.46548 13.4777 9.0089 13.9243 9.64507 14.1867C10.0152 14.3394 10.4071 14.4233 10.8029 14.4416C10.8537 14.4275 10.9068 14.4183 10.9621 14.4183C11.0181 14.4183 11.0716 14.428 11.123 14.4424C11.3012 14.4341 11.4797 14.4133 11.656 14.3771C12.1287 14.2802 12.5718 14.0836 12.9615 13.8067L12.1324 12.9783C11.9112 13.1067 11.6702 13.2007 11.4167 13.2511C10.9646 13.3409 10.496 13.2944 10.0701 13.1182C9.64411 12.9418 9.27981 12.6427 9.02344 12.2594C8.7671 11.8762 8.62992 11.4258 8.62948 10.9648V9.475L4.17473 5.02051C3.94178 4.78744 3.94173 4.40961 4.17473 4.17656ZM14.4161 9.80684C14.4161 9.47724 14.6833 9.21004 15.0128 9.21C15.3424 9.21 15.6096 9.47721 15.6096 9.80684V10.9648C15.6094 11.2385 15.5849 11.512 15.5366 11.7815C15.4782 12.1057 15.1684 12.3213 14.8442 12.2633C14.5198 12.2051 14.3035 11.8946 14.3617 11.5701C14.3976 11.3701 14.4159 11.1672 14.4161 10.964V9.80684ZM9.82301 10.9632L9.82612 11.0479C9.8408 11.2433 9.90551 11.4321 10.0149 11.5958C10.1401 11.7829 10.3182 11.9293 10.5262 12.0154C10.7343 12.1015 10.9635 12.1238 11.1844 12.0799C11.1978 12.0773 11.2108 12.073 11.224 12.0698L9.82301 10.6687V10.9632ZM12.1013 9.42449V6.33386C12.1015 6.05148 11.9969 5.77876 11.8076 5.56917C11.6182 5.35963 11.3574 5.22764 11.0764 5.19925C10.7953 5.17095 10.5135 5.24857 10.2861 5.41607C10.0588 5.5836 9.90175 5.8295 9.84554 6.10616C9.77997 6.4291 9.46522 6.63787 9.14232 6.57244C8.81945 6.50686 8.61073 6.19204 8.6761 5.86914C8.79121 5.30227 9.1126 4.79787 9.57824 4.45477C10.044 4.11166 10.6212 3.95367 11.1968 4.01181C11.7723 4.06999 12.3057 4.34023 12.6934 4.7695C13.0809 5.19865 13.2952 5.75638 13.2948 6.33464V9.42449C13.2948 9.75411 13.0276 10.0213 12.698 10.0213C12.3685 10.0212 12.1013 9.75406 12.1013 9.42449Z" fill="#3A4E83"/>
</svg>
