<svg width="20" height="20" viewBox="0 0 20 20" fill="none" xmlns="http://www.w3.org/2000/svg">
<path d="M10 13.0827C9.88503 13.0827 9.77724 13.0646 9.67664 13.0284C9.57603 12.9928 9.48262 12.9318 9.39639 12.8456L6.29209 9.74131C6.134 9.58322 6.05496 9.38201 6.05496 9.1377C6.05496 8.89338 6.134 8.69217 6.29209 8.53408C6.45018 8.37599 6.65483 8.29321 6.90605 8.28574C7.15784 8.27884 7.36278 8.35443 7.52087 8.51252L9.1377 10.1293V3.96387C9.1377 3.71955 9.22048 3.51461 9.38604 3.34904C9.55103 3.18406 9.75568 3.10156 10 3.10156C10.2443 3.10156 10.4493 3.18406 10.6148 3.34904C10.7798 3.51461 10.8623 3.71955 10.8623 3.96387V10.1293L12.4791 8.51252C12.6372 8.35443 12.8422 8.27884 13.0939 8.28574C13.3452 8.29321 13.5498 8.37599 13.7079 8.53408C13.866 8.69217 13.945 8.89338 13.945 9.1377C13.945 9.38201 13.866 9.58322 13.7079 9.74131L10.6036 12.8456C10.5174 12.9318 10.424 12.9928 10.3234 13.0284C10.2228 13.0646 10.115 13.0827 10 13.0827ZM4.82617 16.8984C4.3519 16.8984 3.94605 16.7297 3.6086 16.3923C3.27057 16.0542 3.10156 15.6481 3.10156 15.1738V13.4492C3.10156 13.2049 3.18406 13 3.34904 12.8344C3.51461 12.6694 3.71955 12.5869 3.96387 12.5869C4.20819 12.5869 4.41313 12.6694 4.57869 12.8344C4.74368 13 4.82617 13.2049 4.82617 13.4492V15.1738H15.1738V13.4492C15.1738 13.2049 15.2566 13 15.4222 12.8344C15.5872 12.6694 15.7918 12.5869 16.0361 12.5869C16.2805 12.5869 16.4851 12.6694 16.6501 12.8344C16.8157 13 16.8984 13.2049 16.8984 13.4492V15.1738C16.8984 15.6481 16.7297 16.0542 16.3923 16.3923C16.0542 16.7297 15.6481 16.8984 15.1738 16.8984H4.82617Z" fill="#B8C3E0"/>
</svg>
