<svg width="22" height="24" viewBox="0 0 22 24" fill="none" xmlns="http://www.w3.org/2000/svg">
<path d="M11.6057 18.1829C11.7996 17.8356 12.2277 17.7173 12.562 17.9187C12.8964 18.1202 13.0103 18.5657 12.8163 18.9132C12.6317 19.2438 12.3667 19.518 12.0479 19.7088C11.7292 19.8996 11.3679 20 11 20C10.6321 20 10.2708 19.8996 9.95205 19.7088C9.63331 19.518 9.36829 19.2438 9.18369 18.9132C8.98971 18.5657 9.10358 18.1202 9.43799 17.9187C9.77231 17.7173 10.2004 17.8356 10.3943 18.1829C10.4559 18.2931 10.5444 18.385 10.6507 18.4486C10.7569 18.5121 10.8774 18.5452 11 18.5452C11.1226 18.5452 11.2431 18.5121 11.3493 18.4486C11.4556 18.385 11.5441 18.2931 11.6057 18.1829ZM14.5 9.09181C14.5 8.12722 14.131 7.20241 13.4746 6.52033C12.8182 5.83826 11.9283 5.4548 11 5.4548C10.0717 5.4548 9.18177 5.83826 8.52539 6.52033C7.86901 7.20241 7.5 8.12722 7.5 9.09181C7.5 11.7447 6.95193 13.5035 6.36455 14.6226C6.31117 14.7243 6.2566 14.8202 6.20322 14.911H15.7968C15.7434 14.8202 15.6888 14.7243 15.6354 14.6226C15.0481 13.5035 14.5 11.7447 14.5 9.09181ZM15.9 9.09181C15.9 11.5305 16.402 13.0452 16.8645 13.9265C17.0968 14.3688 17.3227 14.6592 17.4798 14.8315C17.5585 14.9178 17.6209 14.9747 17.6582 15.0069C17.6768 15.023 17.689 15.0333 17.6944 15.0375C17.6937 15.037 17.6927 15.036 17.6917 15.0353L17.689 15.0339C17.9451 15.2119 18.0592 15.5429 17.9699 15.8494C17.8805 16.1561 17.6084 16.3658 17.3 16.3658H4.7C4.3916 16.3658 4.11952 16.1561 4.03008 15.8494C3.94078 15.5429 4.05493 15.2119 4.31104 15.0339L4.3083 15.0353C4.30733 15.036 4.30629 15.037 4.30557 15.0375C4.31095 15.0333 4.3232 15.023 4.3418 15.0069C4.37905 14.9747 4.44148 14.9178 4.52022 14.8315C4.67729 14.6592 4.90325 14.3688 5.13545 13.9265C5.59803 13.0452 6.1 11.5305 6.1 9.09181C6.1 7.74138 6.61594 6.44593 7.53486 5.49103C8.45379 4.53613 9.70044 4 11 4C12.2996 4 13.5462 4.53613 14.4651 5.49103C15.3841 6.44593 15.9 7.74138 15.9 9.09181Z" fill="#28365B"/>
</svg>
