<svg width="24" height="26" viewBox="0 0 24 26" fill="none" xmlns="http://www.w3.org/2000/svg">
<path d="M10.151 6.27575C11.2327 5.94716 12.3763 5.91159 13.4746 6.1725C14.5729 6.43349 15.5906 6.98276 16.4323 7.76836C17.274 8.55407 17.9127 9.55109 18.2884 10.666C18.4112 11.0306 18.2293 11.4307 17.8822 11.5597C17.5351 11.6885 17.1541 11.4975 17.0313 11.133C16.7307 10.2412 16.2202 9.44368 15.5469 8.81516C14.8736 8.18666 14.0596 7.74745 13.181 7.53862C12.3023 7.32981 11.3869 7.35845 10.5215 7.62135C9.65621 7.88427 8.86856 8.37308 8.23177 9.04216C8.22691 9.04727 8.2218 9.05226 8.2168 9.05721L6.34961 10.8999H8.66667C9.03486 10.8999 9.33333 11.2134 9.33333 11.6C9.33318 11.9866 9.03476 12.3002 8.66667 12.3002H4.66667C4.29857 12.3002 4.00015 11.9866 4 11.6V7.39914C4 7.01245 4.29848 6.69898 4.66667 6.69898C5.03486 6.69898 5.33333 7.01245 5.33333 7.39914V9.98094L7.30339 8.03707C8.09687 7.20847 9.07594 6.60238 10.151 6.27575ZM20 18.6015C19.9999 18.9881 19.7014 19.3017 19.3333 19.3017C18.9652 19.3017 18.6668 18.9881 18.6667 18.6015V16.0184L16.6966 17.9629C15.9031 18.7915 14.9241 19.3976 13.849 19.7242C12.7673 20.0528 11.6237 20.0884 10.5254 19.8275C9.42708 19.5665 8.4094 19.0173 7.56771 18.2316C6.72598 17.4459 6.08727 16.4489 5.71159 15.3339C5.58882 14.9694 5.77077 14.5693 6.11784 14.4403C6.46487 14.3115 6.84595 14.5025 6.96875 14.867C7.26928 15.7588 7.77982 16.5563 8.45313 17.1848C9.12643 17.8133 9.94042 18.2525 10.819 18.4614C11.6977 18.6702 12.6131 18.6422 13.4785 18.3793C14.3439 18.1164 15.1314 17.627 15.7682 16.9578C15.7731 16.9527 15.7782 16.9478 15.7832 16.9428L17.6497 15.1008H15.3333C14.9652 15.1008 14.6668 14.7872 14.6667 14.4006C14.6667 14.014 14.9651 13.7005 15.3333 13.7005H19.3333C19.7015 13.7005 20 14.014 20 14.4006V18.6015Z" fill="#28365B"/>
</svg>
