<svg width="56" height="56" viewBox="0 0 56 56" fill="none" xmlns="http://www.w3.org/2000/svg">
<circle cx="28" cy="28" r="28" fill="#2B3959"/>
<path d="M37.1495 26.6422H35.1377V22.0108C35.1377 18.1456 31.9353 15 27.9993 15C24.0632 15 20.8608 18.1455 20.8608 22.0108V26.6422H18.849C17.8286 26.6422 17 27.4547 17 28.4569V39.1853C17 40.1875 17.8271 41 18.849 41H37.151C38.1714 41 39 40.1875 39 39.1853V28.4569C39 27.4547 38.1729 26.6422 37.151 26.6422H37.1495ZM27.9993 39.2824C27.1308 39.2824 26.428 38.5983 26.428 37.753C26.428 36.9077 27.1308 36.2236 27.9993 36.2236C28.8678 36.2236 29.5706 36.9077 29.5706 37.753C29.5706 38.5983 28.8678 39.2824 27.9993 39.2824ZM29.8207 29.5236L29.0228 34.1103C28.9384 34.5957 28.5057 34.9527 27.9993 34.9527C27.4929 34.9527 27.0602 34.5972 26.9758 34.1103L26.1779 29.5236C26.0704 28.9068 26.5584 28.3452 27.2014 28.3452H28.7972C29.4402 28.3452 29.9281 28.9083 29.8207 29.5236ZM31.992 26.6425H24.005V22.0111C24.005 19.8499 25.7973 18.0889 27.9977 18.0889C30.1997 18.0889 31.9904 19.8484 31.9904 22.0111V26.6425H31.992Z" fill="white"/>
</svg>
