<svg width="20" height="20" viewBox="0 0 20 20" fill="none" xmlns="http://www.w3.org/2000/svg">
<path d="M15.5969 3.59805H14.7969V1.99805H13.1969V3.59805H6.79688V1.99805H5.19688V3.59805H4.39688C3.50887 3.59805 2.80487 4.31805 2.80487 5.19805L2.79688 16.398C2.79688 17.278 3.50887 17.998 4.39688 17.998H15.5969C16.4769 17.998 17.1969 17.278 17.1969 16.398V5.19805C17.1969 4.31805 16.4769 3.59805 15.5969 3.59805ZM15.5969 16.398H4.39688V8.39805H15.5969V16.398ZM15.5969 6.79805H4.39688V5.19805H15.5969V6.79805ZM7.59688 11.598H5.99688V9.99805H7.59688V11.598ZM10.7969 11.598H9.19688V9.99805H10.7969V11.598ZM13.9969 11.598H12.3969V9.99805H13.9969V11.598ZM7.59688 14.798H5.99688V13.198H7.59688V14.798ZM10.7969 14.798H9.19688V13.198H10.7969V14.798ZM13.9969 14.798H12.3969V13.198H13.9969V14.798Z" fill="#384C75"/>
</svg>
