<svg width="26" height="23" viewBox="0 0 26 23" fill="none" xmlns="http://www.w3.org/2000/svg">
<path d="M19 15.5V17H7V15.5H19ZM20.5 14V7C20.5 6.17157 19.8284 5.5 19 5.5H7C6.17157 5.5 5.5 6.17157 5.5 7V14C5.5 14.8284 6.17157 15.5 7 15.5V17C5.39489 17 4.08421 15.7394 4.00391 14.1543L4 14V7C4 5.34315 5.34315 4 7 4H19L19.1543 4.00391C20.7394 4.08421 22 5.39489 22 7V14C22 15.6051 20.7394 16.9158 19.1543 16.9961L19 17V15.5C19.8284 15.5 20.5 14.8284 20.5 14Z" fill="#3A4E83"/>
<path d="M21.1356 17.25C21.613 17.25 22 17.5858 22 18C22 18.4142 21.613 18.75 21.1356 18.75H4.86443C4.38702 18.75 4 18.4142 4 18C4 17.5858 4.38702 17.25 4.86443 17.25H21.1356Z" fill="#3A4E83"/>
<path d="M12.4999 12.8021V9.36071L11.8925 9.96813C11.6972 10.1634 11.3807 10.1634 11.1855 9.96813C10.9903 9.77287 10.9902 9.45634 11.1855 9.2611L12.5995 7.84704C12.7091 7.73745 12.8568 7.69201 12.9999 7.70544C13.1431 7.69192 13.2907 7.73743 13.4003 7.84704L14.8144 9.2611C15.0096 9.45637 15.0096 9.77287 14.8144 9.96813C14.6191 10.1633 14.3026 10.1634 14.1073 9.96813L13.4999 9.36071V12.8021C13.4999 13.0783 13.2761 13.3021 12.9999 13.3021C12.7239 13.302 12.4999 13.0782 12.4999 12.8021Z" fill="#3A4E83"/>
</svg>
