<svg width="20" height="20" viewBox="0 0 20 20" fill="none" xmlns="http://www.w3.org/2000/svg">
<path d="M14.2607 7.51709H13.5513V6.09814C13.5513 4.14 11.9621 2.55078 10.0039 2.55078C8.04576 2.55078 6.45654 4.14 6.45654 6.09814V7.51709H5.74707C4.96665 7.51709 4.32812 8.15562 4.32812 8.93604V16.0308C4.32812 16.8112 4.96665 17.4497 5.74707 17.4497H14.2607C15.0412 17.4497 15.6797 16.8112 15.6797 16.0308V8.93604C15.6797 8.15562 15.0412 7.51709 14.2607 7.51709ZM7.87549 6.09814C7.87549 4.92042 8.82618 3.96973 10.0039 3.96973C11.1816 3.96973 12.1323 4.92042 12.1323 6.09814V7.51709H7.87549V6.09814ZM13.5513 16.0308H6.45654C6.06633 16.0308 5.74707 15.7115 5.74707 15.3213V9.64551C5.74707 9.2553 6.06633 8.93604 6.45654 8.93604H13.5513C13.9415 8.93604 14.2607 9.2553 14.2607 9.64551V15.3213C14.2607 15.7115 13.9415 16.0308 13.5513 16.0308ZM10.0039 13.9023C10.7843 13.9023 11.4229 13.2638 11.4229 12.4834C11.4229 11.703 10.7843 11.0645 10.0039 11.0645C9.22349 11.0645 8.58496 11.703 8.58496 12.4834C8.58496 13.2638 9.22349 13.9023 10.0039 13.9023Z" fill="#B8C3E0"/>
</svg>
