<svg width="28" height="28" viewBox="0 0 28 28" fill="none" xmlns="http://www.w3.org/2000/svg">
<path d="M14.8333 6.5C14.8333 6.27899 14.7455 6.06709 14.5892 5.91081C14.4329 5.75453 14.221 5.66667 14 5.66667C13.779 5.66667 13.5671 5.75453 13.4108 5.91081C13.2545 6.06709 13.1667 6.27899 13.1667 6.5V6.64486C13.1649 7.07553 13.0374 7.49672 12.7996 7.85579C12.5618 8.2148 12.2238 8.49671 11.828 8.66634C11.7588 8.69595 11.6857 8.71408 11.6115 8.72412C11.2508 8.85116 10.8626 8.88379 10.4844 8.81527C10.0502 8.73654 9.64909 8.52892 9.33366 8.22038L9.32715 8.21468V8.21387L9.27751 8.16423H9.27669C9.19931 8.08677 9.10766 8.02468 9.00651 7.98275C8.9054 7.94086 8.79694 7.91927 8.6875 7.91927C8.57806 7.91927 8.4696 7.94086 8.36849 7.98275C8.26734 8.02468 8.17569 8.08677 8.09831 8.16423H8.09749C8.02001 8.24162 7.95795 8.33406 7.91602 8.43522C7.87415 8.53631 7.85254 8.64482 7.85254 8.75423C7.85255 8.86366 7.87413 8.97214 7.91602 9.07324C7.95794 9.17439 8.02003 9.26604 8.09749 9.34342V9.34424L8.14795 9.39388L8.15446 9.40039H8.15365C8.46219 9.71582 8.66981 10.1169 8.74854 10.5511C8.82401 10.9677 8.77551 11.3958 8.61426 11.7865L8.61507 11.7873C8.46212 12.2032 8.18773 12.5638 7.82731 12.8216C7.46693 13.0793 7.03733 13.223 6.5944 13.2334H6.5C6.27899 13.2334 6.06709 13.3213 5.91081 13.4775C5.75455 13.6338 5.66667 13.8457 5.66667 14.0667C5.66668 14.2877 5.75454 14.4997 5.91081 14.6559C6.06708 14.8122 6.279 14.9001 6.5 14.9001H6.64486C7.07553 14.9018 7.49672 15.0293 7.85579 15.2671C8.21479 15.5049 8.49671 15.843 8.66634 16.2388H8.66553C8.84071 16.6402 8.89338 17.0845 8.81527 17.5156C8.73654 17.9498 8.52892 18.3509 8.22038 18.6663L8.21468 18.6729H8.21387L8.16423 18.7225V18.7233C8.08677 18.8007 8.02468 18.8923 7.98275 18.9935C7.94086 19.0946 7.91927 19.2031 7.91927 19.3125C7.91927 19.4219 7.94086 19.5304 7.98275 19.6315C8.01421 19.7074 8.05693 19.7782 8.10889 19.8415L8.16423 19.9017V19.9025C8.24162 19.98 8.33405 20.042 8.43522 20.084C8.53631 20.1258 8.64482 20.1475 8.75423 20.1475C8.86366 20.1475 8.97214 20.1259 9.07324 20.084C9.17439 20.0421 9.26604 19.98 9.34342 19.9025H9.34424L9.39388 19.8521L9.40039 19.8455C9.71581 19.537 10.117 19.3302 10.5511 19.2515C10.9851 19.1728 11.4326 19.2264 11.8361 19.4045H11.8353C12.2308 19.5605 12.5738 19.8263 12.8216 20.1727C13.0793 20.5331 13.223 20.9627 13.2334 21.4056V21.5C13.2334 21.721 13.3213 21.9329 13.4775 22.0892C13.6338 22.2455 13.8457 22.3333 14.0667 22.3333C14.2877 22.3333 14.4997 22.2455 14.6559 22.0892C14.8122 21.9329 14.9001 21.721 14.9001 21.5V21.3551C14.9018 20.9245 15.0293 20.5033 15.2671 20.1442C15.4752 19.83 15.76 19.5753 16.0931 19.4028L16.2388 19.3337C16.6401 19.1586 17.0846 19.1066 17.5156 19.1847C17.8956 19.2536 18.2503 19.4207 18.5443 19.6681L18.6663 19.7796L18.6729 19.7853V19.7861L18.7225 19.8358H18.7233C18.8007 19.9132 18.8923 19.9753 18.9935 20.0173C19.0946 20.0591 19.2031 20.0807 19.3125 20.0807C19.4219 20.0807 19.5304 20.0591 19.6315 20.0173C19.7327 19.9753 19.8243 19.9132 19.9017 19.8358H19.9025C19.98 19.7584 20.042 19.6659 20.084 19.5648C20.1258 19.4637 20.1475 19.3552 20.1475 19.2458C20.1475 19.1363 20.1259 19.0279 20.084 18.9268C20.0421 18.8256 19.98 18.734 19.9025 18.6566V18.6558L19.8521 18.6061L19.8455 18.5996V18.5988C19.5373 18.2834 19.3301 17.8828 19.2515 17.4489C19.1734 17.0179 19.2253 16.5734 19.4004 16.172L19.4696 16.0264C19.642 15.6933 19.8967 15.4085 20.2109 15.2004C20.57 14.9626 20.9912 14.8351 21.4219 14.8333H21.5C21.721 14.8333 21.9329 14.7455 22.0892 14.5892C22.2455 14.4329 22.3333 14.221 22.3333 14C22.3333 13.779 22.2455 13.5671 22.0892 13.4108C21.9329 13.2545 21.721 13.1667 21.5 13.1667H21.3551C20.9245 13.1649 20.5033 13.0374 20.1442 12.7996C19.7852 12.5618 19.5033 12.2238 19.3337 11.828C19.304 11.7587 19.2851 11.6858 19.2751 11.6115C19.1481 11.2509 19.1162 10.8625 19.1847 10.4844C19.2635 10.0502 19.4711 9.64909 19.7796 9.33366L19.7853 9.32715H19.7861L19.8358 9.27751V9.27669C19.9132 9.19931 19.9753 9.10765 20.0173 9.00651C20.0591 8.9054 20.0807 8.79694 20.0807 8.6875C20.0807 8.57806 20.0591 8.4696 20.0173 8.36849C19.9753 8.26735 19.9132 8.17569 19.8358 8.09831V8.09749C19.7584 8.02001 19.6659 7.95795 19.5648 7.91602C19.4637 7.87415 19.3552 7.85254 19.2458 7.85254C19.1363 7.85255 19.0279 7.87413 18.9268 7.91602C18.8256 7.95794 18.734 8.02004 18.6566 8.09749H18.6558L18.6061 8.14795L18.5996 8.15446L18.5988 8.15365C18.2834 8.46214 17.883 8.66982 17.4489 8.74854C17.0178 8.82664 16.5735 8.774 16.172 8.5988V8.59961C15.7762 8.42997 15.4382 8.14809 15.2004 7.78906C14.9626 7.42999 14.8351 7.0088 14.8333 6.57812V6.5ZM15.6667 14C15.6667 13.0795 14.9205 12.3333 14 12.3333C13.0795 12.3333 12.3333 13.0795 12.3333 14C12.3333 14.9205 13.0795 15.6667 14 15.6667C14.9205 15.6667 15.6667 14.9205 15.6667 14ZM17.3333 14C17.3333 15.8409 15.8409 17.3333 14 17.3333C12.1591 17.3333 10.6667 15.8409 10.6667 14C10.6667 12.1591 12.1591 10.6667 14 10.6667C15.8409 10.6667 17.3333 12.1591 17.3333 14ZM16.5 6.57161L16.5057 6.65055C16.5174 6.72819 16.5466 6.80267 16.5903 6.86865C16.6486 6.95655 16.7311 7.02562 16.828 7.06722L16.8361 7.07129C16.9351 7.11499 17.0454 7.12803 17.1519 7.10872C17.2583 7.08941 17.3569 7.03792 17.4342 6.96224L17.4774 6.91911L17.6589 6.75391C17.8486 6.59809 18.0611 6.47147 18.2887 6.37712C18.5922 6.25134 18.9173 6.18588 19.2458 6.18587C19.5742 6.18587 19.8994 6.25136 20.2028 6.37712C20.5063 6.50293 20.7828 6.68667 21.015 6.91911H21.0142C21.2465 7.15123 21.4312 7.4271 21.557 7.73047C21.6827 8.03385 21.7474 8.35911 21.7474 8.6875C21.7474 9.01589 21.6827 9.34115 21.557 9.64453C21.4626 9.87215 21.3352 10.0847 21.1794 10.2744L21.0142 10.4559L20.971 10.499L20.9189 10.5609C20.8718 10.6262 20.8399 10.7015 20.8254 10.7814C20.806 10.8879 20.8183 10.9982 20.862 11.0972C20.8851 11.1497 20.903 11.2041 20.9149 11.2599C20.9545 11.3189 21.0049 11.3701 21.0646 11.4097C21.1527 11.468 21.256 11.4996 21.3617 11.5H21.5C22.163 11.5 22.7987 11.7636 23.2676 12.2324C23.7364 12.7013 24 13.337 24 14C24 14.663 23.7364 15.2987 23.2676 15.7676C22.7987 16.2364 22.163 16.5 21.5 16.5H21.4284L21.3494 16.5057C21.2718 16.5174 21.1973 16.5466 21.1313 16.5903C21.0435 16.6486 20.9744 16.7311 20.9328 16.828L20.9287 16.8361C20.885 16.9351 20.872 17.0454 20.8913 17.1519C20.9106 17.2583 20.9621 17.3569 21.0378 17.4342L21.0809 17.4774L21.2461 17.6589C21.4019 17.8486 21.5285 18.0611 21.6229 18.2887C21.7487 18.5922 21.8141 18.9173 21.8141 19.2458C21.8141 19.5742 21.7486 19.8994 21.6229 20.2028C21.4971 20.5063 21.3133 20.7828 21.0809 21.015L21.0801 21.0142C20.848 21.2463 20.5727 21.4313 20.2695 21.557C19.9662 21.6827 19.6409 21.7474 19.3125 21.7474C18.9841 21.7474 18.6588 21.6827 18.3555 21.557C18.1278 21.4626 17.9153 21.3352 17.7256 21.1794L17.5441 21.0142L17.501 20.971L17.4391 20.9189C17.3738 20.8718 17.2985 20.8399 17.2186 20.8254C17.1121 20.806 17.0018 20.8183 16.9028 20.862L16.8947 20.866C16.7978 20.9076 16.7153 20.9767 16.6571 21.0646C16.5987 21.1527 16.5672 21.256 16.5667 21.3617V21.5C16.5667 22.163 16.3031 22.7987 15.8343 23.2676C15.3655 23.7364 14.7298 24 14.0667 24C13.4037 24 12.768 23.7364 12.2992 23.2676C11.8303 22.7987 11.5667 22.163 11.5667 21.5V21.4447L11.5586 21.3641C11.5447 21.2844 11.5133 21.2083 11.4658 21.1419C11.4027 21.0537 11.3145 20.9866 11.2127 20.9491C11.1963 20.943 11.1799 20.9358 11.1639 20.9287C11.0649 20.885 10.9546 20.872 10.8481 20.8913C10.7416 20.9106 10.6431 20.9621 10.5658 21.0378L10.5226 21.0809C10.2905 21.3132 10.0146 21.4971 9.71126 21.6229C9.40781 21.7487 9.08272 21.8141 8.75423 21.8141C8.42576 21.8141 8.10064 21.7486 7.7972 21.6229C7.49371 21.4971 7.21721 21.3133 6.98503 21.0809V21.0801C6.75311 20.8481 6.56864 20.5725 6.44303 20.2695C6.31733 19.9662 6.2526 19.6409 6.2526 19.3125C6.2526 18.9841 6.31733 18.6588 6.44303 18.3555C6.56879 18.0521 6.75354 17.7762 6.98584 17.5441L7.02897 17.501C7.10461 17.4236 7.15531 17.325 7.17464 17.2186C7.19395 17.1121 7.18172 17.0018 7.13802 16.9028L7.13395 16.8947C7.09237 16.7978 7.02327 16.7153 6.93538 16.6571C6.86942 16.6134 6.79489 16.5842 6.71729 16.5724L6.63835 16.5667H6.5C5.83697 16.5667 5.20126 16.3031 4.73242 15.8343C4.2636 15.3655 4.00002 14.7297 4 14.0667C4 13.4037 4.2636 12.768 4.73242 12.2992C5.20126 11.8303 5.83696 11.5667 6.5 11.5667H6.55534C6.664 11.5642 6.76967 11.529 6.85807 11.4658C6.94629 11.4027 7.01342 11.3145 7.05094 11.2127L7.07129 11.1639C7.11499 11.0649 7.12803 10.9546 7.10872 10.8481C7.08941 10.7417 7.03792 10.6431 6.96224 10.5658L6.91911 10.5226C6.68681 10.2905 6.50287 10.0146 6.37712 9.71126C6.25134 9.40781 6.18588 9.08272 6.18587 8.75423C6.18587 8.42577 6.25136 8.10064 6.37712 7.7972C6.50293 7.49371 6.68667 7.21721 6.91911 6.98503C7.15114 6.75292 7.42728 6.56872 7.73047 6.44303C8.03385 6.31733 8.35911 6.2526 8.6875 6.2526C9.01589 6.2526 9.34115 6.31733 9.64453 6.44303C9.9479 6.56879 10.2238 6.75354 10.4559 6.98584L10.499 7.02897C10.5764 7.10461 10.675 7.15531 10.7814 7.17464C10.8879 7.19395 10.9982 7.18172 11.0972 7.13802L11.1777 7.1071C11.2048 7.09836 11.2321 7.09022 11.2599 7.08431C11.3187 7.04474 11.3702 6.99499 11.4097 6.93538C11.4674 6.84821 11.499 6.7461 11.5 6.6416V6.5C11.5 5.83696 11.7636 5.20126 12.2324 4.73242C12.7013 4.26358 13.337 4 14 4C14.663 4 15.2987 4.26358 15.7676 4.73242C16.2364 5.20126 16.5 5.83696 16.5 6.5V6.57161Z" fill="#28365B"/>
</svg>
