<svg width="16" height="16" viewBox="0 0 16 16" fill="none" xmlns="http://www.w3.org/2000/svg">
<path d="M10.5317 8.89686L3.37302 8.89686C3.12566 8.89686 2.91832 8.81091 2.75099 8.63901C2.58366 8.46712 2.5 8.25411 2.5 8C2.5 7.74589 2.58366 7.53289 2.75099 7.36099C2.91832 7.18909 3.12566 7.10314 3.37302 7.10314L10.5317 7.10314L8 4.50224C7.83995 4.33782 7.75992 4.12855 7.75992 3.87444C7.75992 3.62033 7.83995 3.41106 8 3.24664C8.16005 3.08221 8.36376 3 8.61111 3C8.85847 3 9.06217 3.08221 9.22222 3.24664L13.2381 7.3722C13.4127 7.55157 13.5 7.76084 13.5 8C13.5 8.23916 13.4127 8.44843 13.2381 8.6278L9.22222 12.7534C9.06217 12.9178 8.85847 13 8.61111 13C8.36376 13 8.16005 12.9178 8 12.7534C7.83995 12.5889 7.75992 12.3797 7.75992 12.1256C7.75992 11.8714 7.83995 11.6622 8 11.4978L10.5317 8.89686Z" fill="white"/>
</svg>
