<svg width="22" height="22" viewBox="0 0 22 22" fill="none" xmlns="http://www.w3.org/2000/svg">
<path d="M4 15.9V6.1C4 5.54305 4.22141 5.00906 4.61524 4.61523C5.00906 4.22141 5.54305 4 6.10001 4H8.90002C9.28662 4 9.60002 4.3134 9.60002 4.7C9.60002 5.0866 9.28662 5.4 8.90002 5.4H6.10001C5.91436 5.4 5.73636 5.4738 5.60508 5.60508C5.47381 5.73635 5.40001 5.91435 5.40001 6.1V15.9C5.40001 16.0857 5.47381 16.2636 5.60508 16.3949C5.73636 16.5262 5.91436 16.6 6.10001 16.6H8.90002C9.28662 16.6 9.60002 16.9134 9.60002 17.3C9.60002 17.6866 9.28662 18 8.90002 18H6.10001C5.54305 18 5.00906 17.7786 4.61524 17.3848C4.22141 16.9909 4 16.457 4 15.9ZM13.3051 7.00508C13.5785 6.73171 14.0216 6.73171 14.295 7.00508L17.795 10.5051C18.0683 10.7784 18.0683 11.2216 17.795 11.4949L14.295 14.9949C14.0216 15.2683 13.5785 15.2683 13.3051 14.9949C13.0317 14.7216 13.0317 14.2784 13.3051 14.0051L15.6102 11.7H8.90002C8.51342 11.7 8.20002 11.3866 8.20002 11C8.20002 10.6134 8.51342 10.3 8.90002 10.3H15.6102L13.3051 7.99492C13.0317 7.72156 13.0317 7.27845 13.3051 7.00508Z" fill="#9C1F16"/>
</svg>
