<svg width="30" height="30" viewBox="0 0 30 30" fill="none" xmlns="http://www.w3.org/2000/svg">
<path d="M14.7582 8C11.0239 8 8 11.0307 8 14.765C8 18.4992 11.0239 21.5299 14.7582 21.5299C18.4992 21.5299 21.5299 18.4992 21.5299 14.765C21.5299 11.0307 18.4992 8 14.7582 8ZM14.765 20.1769C11.7749 20.1769 9.35299 17.7551 9.35299 14.765C9.35299 11.7749 11.7749 9.35299 14.765 9.35299C17.7551 9.35299 20.1769 11.7749 20.1769 14.765C20.1769 17.7551 17.7551 20.1769 14.765 20.1769ZM14.6161 11.3825H14.5755C14.3049 11.3825 14.0885 11.599 14.0885 11.8696V15.0626C14.0885 15.2994 14.2102 15.5226 14.42 15.6444L17.2274 17.3289C17.4574 17.4642 17.7551 17.3965 17.8904 17.1665C18.0324 16.9365 17.958 16.6321 17.7213 16.4968L15.1032 14.9409V11.8696C15.1032 11.599 14.8867 11.3825 14.6161 11.3825Z" fill="#3A4E83"/>
</svg>
